M48
; DRILL file {KiCad 5.1.10-88a1d61d58~88~ubuntu20.04.1} date Mon May 17 22:04:30 2021
; FORMAT={-:-/ absolute / metric / decimal}
; #@! TF.CreationDate,2021-05-17T22:04:30+01:00
; #@! TF.GenerationSoftware,Kicad,Pcbnew,5.1.10-88a1d61d58~88~ubuntu20.04.1
FMAT,2
METRIC
T1C0.800
T2C1.000
T3C2.000
T4C3.000
T5C4.000
T6C4.700
%
G90
G05
T1
X19.968Y60.672
X27.588Y60.672
X29.952Y60.672
X37.572Y60.672
X53.58Y11.2
X54.0Y107.2
X54.0Y88.0
X54.0Y68.8
X54.0Y49.6
X54.0Y30.4
X54.0Y-8.0
X61.2Y11.2
X61.62Y107.2
X61.62Y88.0
X61.62Y68.8
X61.62Y49.6
X61.62Y30.4
X61.62Y-8.0
X73.2Y107.2
X73.2Y88.0
X73.2Y68.8
X73.2Y49.6
X73.2Y30.4
X73.2Y11.2
X73.2Y-8.0
X80.82Y107.2
X80.82Y88.0
X80.82Y68.8
X80.82Y49.6
X80.82Y30.4
X80.82Y11.2
X80.82Y-8.0
X92.38Y90.0
X92.4Y109.2
X92.4Y70.8
X92.4Y51.6
X92.4Y32.4
X92.4Y11.2
X92.4Y-8.0
X100.0Y90.0
X100.02Y109.2
X100.02Y70.8
X100.02Y51.6
X100.02Y32.4
X100.02Y11.2
X100.02Y-8.0
X111.58Y72.8
X111.6Y111.2
X111.6Y92.0
X111.6Y53.6
X111.6Y34.4
X119.2Y72.8
X119.22Y111.2
X119.22Y92.0
X119.22Y53.6
X119.22Y34.4
X130.78Y51.6
X130.8Y109.2
X130.8Y90.0
X130.8Y70.8
X130.8Y32.4
X135.2Y11.2
X135.2Y-8.0
X138.4Y51.6
X138.42Y109.2
X138.42Y90.0
X138.42Y70.8
X138.42Y32.4
X142.82Y11.2
X142.82Y-8.0
X150.0Y88.0
X150.0Y68.8
X150.0Y49.6
X150.0Y30.4
X150.06Y107.2
X157.62Y88.0
X157.62Y68.8
X157.62Y49.6
X157.62Y30.4
X157.68Y107.2
X164.0Y11.2
X164.0Y-8.0
X169.12Y73.6
X169.2Y97.6
X169.2Y40.0
X171.62Y11.2
X171.62Y-8.0
X176.74Y73.6
X176.82Y97.6
X176.82Y40.0
T2
X12.628Y125.728
X13.056Y119.616
X14.523Y72.294
X15.168Y125.728
X16.863Y70.259
X17.45Y99.191
X17.451Y91.511
X17.478Y95.911
X17.478Y88.231
X18.432Y124.608
X18.453Y116.352
X18.484Y121.389
X19.91Y64.0
X21.18Y126.63
X21.18Y124.09
X21.18Y121.55
X21.18Y119.01
X21.18Y116.47
X21.18Y113.93
X21.18Y111.39
X21.18Y108.85
X21.18Y106.31
X21.18Y103.77
X21.18Y101.23
X21.18Y98.69
X21.18Y96.15
X21.18Y93.61
X21.18Y91.07
X21.18Y88.53
X21.18Y85.99
X21.18Y83.45
X21.18Y80.91
X21.18Y78.37
X22.378Y66.71
X22.45Y64.0
X23.808Y86.016
X24.894Y68.726
X24.99Y82.18
X24.99Y64.0
X26.394Y76.832
X27.53Y82.18
X27.53Y64.0
X27.91Y68.003
X28.8Y57.984
X29.642Y79.512
X30.07Y82.18
X30.07Y64.0
X31.104Y67.392
X32.064Y85.632
X32.61Y82.18
X32.61Y64.0
X32.743Y79.482
X33.187Y69.69
X35.15Y64.0
X36.42Y126.63
X36.42Y124.09
X36.42Y121.55
X36.42Y119.01
X36.42Y116.47
X36.42Y113.93
X36.42Y111.39
X36.42Y108.85
X36.42Y106.31
X36.42Y103.77
X36.42Y101.23
X36.42Y98.69
X36.42Y96.15
X36.42Y93.61
X36.42Y91.07
X36.42Y88.53
X36.42Y85.99
X36.42Y83.45
X36.42Y80.91
X36.42Y78.37
X37.69Y64.0
X38.469Y67.692
X39.552Y126.528
X40.32Y121.728
X40.896Y115.36
X41.0Y118.464
X43.392Y112.864
X43.54Y118.464
X44.928Y124.992
X46.08Y118.464
X166.08Y124.897
X167.72Y119.4
X169.536Y124.897
X170.26Y119.4
X172.8Y122.496
X172.8Y119.4
X175.34Y119.4
X177.88Y119.4
T3
X48.0Y86.4
X48.0Y28.8
X144.0Y88.4
X144.0Y28.8
T4
X53.79Y117.74
X53.79Y98.54
X53.79Y79.34
X53.79Y60.14
X53.79Y40.94
X53.79Y21.74
X53.79Y2.54
X60.14Y120.28
X60.14Y101.08
X60.14Y81.88
X60.14Y62.68
X60.14Y43.48
X60.14Y24.28
X60.14Y5.08
X72.99Y117.74
X72.99Y98.54
X72.99Y79.34
X72.99Y60.14
X72.99Y40.94
X72.99Y21.74
X72.99Y2.54
X79.34Y120.28
X79.34Y101.08
X79.34Y81.88
X79.34Y62.68
X79.34Y43.48
X79.34Y24.28
X79.34Y5.08
X92.19Y119.74
X92.19Y100.54
X92.19Y81.34
X92.19Y62.14
X92.19Y42.94
X92.19Y21.74
X92.19Y2.54
X98.54Y122.28
X98.54Y103.08
X98.54Y83.88
X98.54Y64.68
X98.54Y45.48
X98.54Y24.28
X98.54Y5.08
X111.39Y121.74
X111.39Y102.54
X111.39Y83.34
X111.39Y64.14
X111.39Y44.94
X117.74Y124.28
X117.74Y105.08
X117.74Y85.88
X117.74Y66.68
X117.74Y47.48
X130.59Y119.74
X130.59Y100.54
X130.59Y81.34
X130.59Y62.14
X130.59Y42.94
X135.39Y21.74
X135.39Y2.54
X136.94Y122.28
X136.94Y103.08
X136.94Y83.88
X136.94Y64.68
X136.94Y45.48
X141.74Y24.28
X141.74Y5.08
X149.79Y117.74
X149.79Y98.54
X149.79Y79.34
X149.79Y60.14
X149.79Y40.94
X156.14Y120.28
X156.14Y101.08
X156.14Y81.88
X156.14Y62.68
X156.14Y43.48
X164.19Y21.74
X164.19Y2.54
X168.99Y108.14
X168.99Y84.14
X168.99Y50.54
X170.54Y24.28
X170.54Y5.08
X175.34Y110.68
X175.34Y86.68
X175.34Y53.08
T5
X57.6Y115.2
X57.6Y96.0
X57.6Y76.8
X57.6Y57.6
X57.6Y38.4
X57.6Y19.2
X57.6Y0.0
X76.8Y115.2
X76.8Y96.0
X76.8Y76.8
X76.8Y57.6
X76.8Y38.4
X76.8Y19.2
X76.8Y0.0
X96.0Y117.2
X96.0Y98.0
X96.0Y78.8
X96.0Y59.6
X96.0Y40.4
X96.0Y19.2
X96.0Y0.0
X115.2Y119.2
X115.2Y100.0
X115.2Y80.8
X115.2Y61.6
X115.2Y42.4
X134.4Y117.2
X134.4Y98.0
X134.4Y78.8
X134.4Y59.6
X134.4Y40.4
X139.2Y19.2
X139.2Y0.0
X153.6Y115.2
X153.6Y96.0
X153.6Y76.8
X153.6Y57.6
X153.6Y38.4
X168.0Y19.2
X168.0Y0.0
X172.8Y105.6
X172.8Y81.6
X172.8Y48.0
T6
X48.0Y105.6
X48.0Y55.68
X48.0Y9.6
X105.6Y109.6
X105.6Y59.904
X105.6Y9.6
X153.6Y9.6
X163.2Y112.32
X163.2Y58.752
T0
M30
