%TF.GenerationSoftware,KiCad,Pcbnew,5.1.10-88a1d61d58~88~ubuntu20.04.1*%
%TF.CreationDate,2021-05-17T22:02:50+01:00*%
%TF.ProjectId,left_side,6c656674-5f73-4696-9465-2e6b69636164,rev?*%
%TF.SameCoordinates,Original*%
%TF.FileFunction,Paste,Bot*%
%TF.FilePolarity,Positive*%
%FSLAX46Y46*%
G04 Gerber Fmt 4.6, Leading zero omitted, Abs format (unit mm)*
G04 Created by KiCad (PCBNEW 5.1.10-88a1d61d58~88~ubuntu20.04.1) date 2021-05-17 22:02:50*
%MOMM*%
%LPD*%
G01*
G04 APERTURE LIST*
%ADD10R,2.550000X2.500000*%
G04 APERTURE END LIST*
D10*
%TO.C,SW1x6*%
X178940000Y86680000D03*
X165390000Y84140000D03*
%TD*%
%TO.C,SW0x0*%
X63740000Y120280000D03*
X50190000Y117740000D03*
%TD*%
%TO.C,SW0x1*%
X82940000Y120280000D03*
X69390000Y117740000D03*
%TD*%
%TO.C,SW0x2*%
X102140000Y122280000D03*
X88590000Y119740000D03*
%TD*%
%TO.C,SW0x3*%
X121340000Y124280000D03*
X107790000Y121740000D03*
%TD*%
%TO.C,SW0x4*%
X140540000Y122280000D03*
X126990000Y119740000D03*
%TD*%
%TO.C,SW0x5*%
X159740000Y120280000D03*
X146190000Y117740000D03*
%TD*%
%TO.C,SW0x6*%
X178940000Y110680000D03*
X165390000Y108140000D03*
%TD*%
%TO.C,SW1x0*%
X63740000Y101080000D03*
X50190000Y98540000D03*
%TD*%
%TO.C,SW1x1*%
X82940000Y101080000D03*
X69390000Y98540000D03*
%TD*%
%TO.C,SW1x2*%
X102140000Y103080000D03*
X88590000Y100540000D03*
%TD*%
%TO.C,SW1x3*%
X121340000Y105080000D03*
X107790000Y102540000D03*
%TD*%
%TO.C,SW1x4*%
X140540000Y103080000D03*
X126990000Y100540000D03*
%TD*%
%TO.C,SW1x5*%
X159740000Y101080000D03*
X146190000Y98540000D03*
%TD*%
%TO.C,SW2x0*%
X63740000Y81880000D03*
X50190000Y79340000D03*
%TD*%
%TO.C,SW2x1*%
X82940000Y81880000D03*
X69390000Y79340000D03*
%TD*%
%TO.C,SW2x2*%
X102140000Y83880000D03*
X88590000Y81340000D03*
%TD*%
%TO.C,SW2x3*%
X121340000Y85880000D03*
X107790000Y83340000D03*
%TD*%
%TO.C,SW2x4*%
X140540000Y83880000D03*
X126990000Y81340000D03*
%TD*%
%TO.C,SW2x5*%
X159740000Y81880000D03*
X146190000Y79340000D03*
%TD*%
%TO.C,SW3x0*%
X63740000Y62680000D03*
X50190000Y60140000D03*
%TD*%
%TO.C,SW3x1*%
X82940000Y62680000D03*
X69390000Y60140000D03*
%TD*%
%TO.C,SW3x2*%
X102140000Y64680000D03*
X88590000Y62140000D03*
%TD*%
%TO.C,SW3x3*%
X121340000Y66680000D03*
X107790000Y64140000D03*
%TD*%
%TO.C,SW3x4*%
X140540000Y64680000D03*
X126990000Y62140000D03*
%TD*%
%TO.C,SW3x5*%
X159740000Y62680000D03*
X146190000Y60140000D03*
%TD*%
%TO.C,SW3x6*%
X178940000Y53080000D03*
X165390000Y50540000D03*
%TD*%
%TO.C,SW4x0*%
X63740000Y43480000D03*
X50190000Y40940000D03*
%TD*%
%TO.C,SW4x1*%
X82940000Y43480000D03*
X69390000Y40940000D03*
%TD*%
%TO.C,SW4x2*%
X102140000Y45480000D03*
X88590000Y42940000D03*
%TD*%
%TO.C,SW4x3*%
X121340000Y47480000D03*
X107790000Y44940000D03*
%TD*%
%TO.C,SW4x4*%
X140540000Y45480000D03*
X126990000Y42940000D03*
%TD*%
%TO.C,SW4x5*%
X159740000Y43480000D03*
X146190000Y40940000D03*
%TD*%
%TO.C,SW5x0*%
X63740000Y24280000D03*
X50190000Y21740000D03*
%TD*%
%TO.C,SW5x1*%
X82940000Y24280000D03*
X69390000Y21740000D03*
%TD*%
%TO.C,SW5x2*%
X102140000Y24280000D03*
X88590000Y21740000D03*
%TD*%
%TO.C,SW5x4*%
X145340000Y24280000D03*
X131790000Y21740000D03*
%TD*%
%TO.C,SW5x6*%
X174140000Y24280000D03*
X160590000Y21740000D03*
%TD*%
%TO.C,SW6x0*%
X63740000Y5080000D03*
X50190000Y2540000D03*
%TD*%
%TO.C,SW6x1*%
X82940000Y5080000D03*
X69390000Y2540000D03*
%TD*%
%TO.C,SW6x2*%
X102140000Y5080000D03*
X88590000Y2540000D03*
%TD*%
%TO.C,SW6x4*%
X145340000Y5080000D03*
X131790000Y2540000D03*
%TD*%
%TO.C,SW6x6*%
X174140000Y5080000D03*
X160590000Y2540000D03*
%TD*%
M02*
