%TF.GenerationSoftware,KiCad,Pcbnew,5.1.10-88a1d61d58~88~ubuntu20.04.1*%
%TF.CreationDate,2021-05-17T22:02:50+01:00*%
%TF.ProjectId,left_side,6c656674-5f73-4696-9465-2e6b69636164,rev?*%
%TF.SameCoordinates,Original*%
%TF.FileFunction,Soldermask,Bot*%
%TF.FilePolarity,Negative*%
%FSLAX46Y46*%
G04 Gerber Fmt 4.6, Leading zero omitted, Abs format (unit mm)*
G04 Created by KiCad (PCBNEW 5.1.10-88a1d61d58~88~ubuntu20.04.1) date 2021-05-17 22:02:50*
%MOMM*%
%LPD*%
G01*
G04 APERTURE LIST*
%ADD10C,2.000000*%
%ADD11C,4.700000*%
%ADD12C,4.000000*%
%ADD13C,3.000000*%
%ADD14R,2.550000X2.500000*%
%ADD15O,1.600000X1.600000*%
%ADD16R,1.600000X1.600000*%
%ADD17R,1.700000X1.700000*%
%ADD18C,1.700000*%
%ADD19O,1.700000X1.700000*%
%ADD20C,1.600000*%
G04 APERTURE END LIST*
D10*
%TO.C,REF\u002A\u002A*%
X144000000Y28800000D03*
%TD*%
%TO.C,REF\u002A\u002A*%
X48000000Y28800000D03*
%TD*%
%TO.C,REF\u002A\u002A*%
X48000000Y86400000D03*
%TD*%
%TO.C,REF\u002A\u002A*%
X144000000Y88400000D03*
%TD*%
D11*
%TO.C,REF\u002A\u002A*%
X163200000Y58752000D03*
%TD*%
%TO.C,REF\u002A\u002A*%
X105600000Y59904000D03*
%TD*%
%TO.C,REF\u002A\u002A*%
X105600000Y9600000D03*
%TD*%
%TO.C,REF\u002A\u002A*%
X105600000Y109600000D03*
%TD*%
%TO.C,REF\u002A\u002A*%
X48000000Y55680000D03*
%TD*%
%TO.C,REF\u002A\u002A*%
X48000000Y105600000D03*
%TD*%
%TO.C,REF\u002A\u002A*%
X48000000Y9600000D03*
%TD*%
%TO.C,REF\u002A\u002A*%
X153600000Y9600000D03*
%TD*%
%TO.C,REF\u002A\u002A*%
X163200000Y112320000D03*
%TD*%
D12*
%TO.C,SW1x6*%
X172800000Y81600000D03*
D13*
X175340000Y86680000D03*
X168990000Y84140000D03*
D14*
X178940000Y86680000D03*
X165390000Y84140000D03*
%TD*%
D15*
%TO.C,D0x0*%
X54000000Y107200000D03*
D16*
X61620000Y107200000D03*
%TD*%
D15*
%TO.C,D0x1*%
X73200000Y107200000D03*
D16*
X80820000Y107200000D03*
%TD*%
D15*
%TO.C,D0x2*%
X92400000Y109200000D03*
D16*
X100020000Y109200000D03*
%TD*%
D15*
%TO.C,D0x3*%
X111600000Y111200000D03*
D16*
X119220000Y111200000D03*
%TD*%
D15*
%TO.C,D0x4*%
X130800000Y109200000D03*
D16*
X138420000Y109200000D03*
%TD*%
D15*
%TO.C,D0x5*%
X150060001Y107200000D03*
D16*
X157680001Y107200000D03*
%TD*%
D15*
%TO.C,D0x6*%
X169200000Y97600000D03*
D16*
X176820000Y97600000D03*
%TD*%
D15*
%TO.C,D1x0*%
X54000000Y88000000D03*
D16*
X61620000Y88000000D03*
%TD*%
D15*
%TO.C,D1x1*%
X73200000Y88000000D03*
D16*
X80820000Y88000000D03*
%TD*%
D15*
%TO.C,D1x2*%
X92380000Y90000000D03*
D16*
X100000000Y90000000D03*
%TD*%
D15*
%TO.C,D1x3*%
X111600000Y92000000D03*
D16*
X119220000Y92000000D03*
%TD*%
D15*
%TO.C,D1x4*%
X130800000Y90000000D03*
D16*
X138420000Y90000000D03*
%TD*%
D15*
%TO.C,D1x5*%
X150000000Y88000000D03*
D16*
X157620000Y88000000D03*
%TD*%
D15*
%TO.C,D1x6*%
X169120000Y73600000D03*
D16*
X176740000Y73600000D03*
%TD*%
D15*
%TO.C,D2x0*%
X54000000Y68800000D03*
D16*
X61620000Y68800000D03*
%TD*%
D15*
%TO.C,D2x1*%
X73200000Y68800000D03*
D16*
X80820000Y68800000D03*
%TD*%
D15*
%TO.C,D2x2*%
X92400000Y70800000D03*
D16*
X100020000Y70800000D03*
%TD*%
D15*
%TO.C,D2x3*%
X111580000Y72800000D03*
D16*
X119200000Y72800000D03*
%TD*%
D15*
%TO.C,D2x4*%
X130800000Y70800000D03*
D16*
X138420000Y70800000D03*
%TD*%
D15*
%TO.C,D2x5*%
X150000000Y68800000D03*
D16*
X157620000Y68800000D03*
%TD*%
D15*
%TO.C,D3x0*%
X54000000Y49600000D03*
D16*
X61620000Y49600000D03*
%TD*%
D15*
%TO.C,D3x1*%
X73200000Y49600000D03*
D16*
X80820000Y49600000D03*
%TD*%
D15*
%TO.C,D3x2*%
X92400000Y51600000D03*
D16*
X100020000Y51600000D03*
%TD*%
D15*
%TO.C,D3x3*%
X111600000Y53600000D03*
D16*
X119220000Y53600000D03*
%TD*%
D15*
%TO.C,D3x4*%
X130780000Y51600000D03*
D16*
X138400000Y51600000D03*
%TD*%
D15*
%TO.C,D3x5*%
X150000000Y49600000D03*
D16*
X157620000Y49600000D03*
%TD*%
D15*
%TO.C,D3x6*%
X169200000Y40000000D03*
D16*
X176820000Y40000000D03*
%TD*%
D15*
%TO.C,D4x0*%
X54000000Y30400000D03*
D16*
X61620000Y30400000D03*
%TD*%
D15*
%TO.C,D4x1*%
X73200000Y30400000D03*
D16*
X80820000Y30400000D03*
%TD*%
D15*
%TO.C,D4x2*%
X92400000Y32400000D03*
D16*
X100020000Y32400000D03*
%TD*%
D15*
%TO.C,D4x3*%
X111600000Y34400000D03*
D16*
X119220000Y34400000D03*
%TD*%
D15*
%TO.C,D4x4*%
X130800000Y32400000D03*
D16*
X138420000Y32400000D03*
%TD*%
D15*
%TO.C,D4x5*%
X150000000Y30400000D03*
D16*
X157620000Y30400000D03*
%TD*%
D15*
%TO.C,D5x0*%
X53580000Y11200000D03*
D16*
X61200000Y11200000D03*
%TD*%
D15*
%TO.C,D5x1*%
X73200000Y11200000D03*
D16*
X80820000Y11200000D03*
%TD*%
D15*
%TO.C,D5x2*%
X92400000Y11200000D03*
D16*
X100020000Y11200000D03*
%TD*%
D15*
%TO.C,D5x4*%
X135200000Y11200000D03*
D16*
X142820000Y11200000D03*
%TD*%
D15*
%TO.C,D5x6*%
X164000000Y11200000D03*
D16*
X171620000Y11200000D03*
%TD*%
D15*
%TO.C,D6x0*%
X54000000Y-8000000D03*
D16*
X61620000Y-8000000D03*
%TD*%
D15*
%TO.C,D6x1*%
X73200000Y-8000000D03*
D16*
X80820000Y-8000000D03*
%TD*%
D15*
%TO.C,D6x2*%
X92400000Y-8000000D03*
D16*
X100020000Y-8000000D03*
%TD*%
D15*
%TO.C,D6x4*%
X135200000Y-8000000D03*
D16*
X142820000Y-8000000D03*
%TD*%
D15*
%TO.C,D6x6*%
X164000000Y-8000000D03*
D16*
X171620000Y-8000000D03*
%TD*%
D12*
%TO.C,SW0x0*%
X57600000Y115200000D03*
D13*
X60140000Y120280000D03*
X53790000Y117740000D03*
D14*
X63740000Y120280000D03*
X50190000Y117740000D03*
%TD*%
D12*
%TO.C,SW0x1*%
X76800000Y115200000D03*
D13*
X79340000Y120280000D03*
X72990000Y117740000D03*
D14*
X82940000Y120280000D03*
X69390000Y117740000D03*
%TD*%
D12*
%TO.C,SW0x2*%
X96000000Y117200000D03*
D13*
X98540000Y122280000D03*
X92190000Y119740000D03*
D14*
X102140000Y122280000D03*
X88590000Y119740000D03*
%TD*%
D12*
%TO.C,SW0x3*%
X115200000Y119200000D03*
D13*
X117740000Y124280000D03*
X111390000Y121740000D03*
D14*
X121340000Y124280000D03*
X107790000Y121740000D03*
%TD*%
D12*
%TO.C,SW0x4*%
X134400000Y117200000D03*
D13*
X136940000Y122280000D03*
X130590000Y119740000D03*
D14*
X140540000Y122280000D03*
X126990000Y119740000D03*
%TD*%
D12*
%TO.C,SW0x5*%
X153600000Y115200000D03*
D13*
X156140000Y120280000D03*
X149790000Y117740000D03*
D14*
X159740000Y120280000D03*
X146190000Y117740000D03*
%TD*%
D12*
%TO.C,SW0x6*%
X172800000Y105600000D03*
D13*
X175340000Y110680000D03*
X168990000Y108140000D03*
D14*
X178940000Y110680000D03*
X165390000Y108140000D03*
%TD*%
D12*
%TO.C,SW1x0*%
X57600000Y96000000D03*
D13*
X60140000Y101080000D03*
X53790000Y98540000D03*
D14*
X63740000Y101080000D03*
X50190000Y98540000D03*
%TD*%
D12*
%TO.C,SW1x1*%
X76800000Y96000000D03*
D13*
X79340000Y101080000D03*
X72990000Y98540000D03*
D14*
X82940000Y101080000D03*
X69390000Y98540000D03*
%TD*%
D12*
%TO.C,SW1x2*%
X96000000Y98000000D03*
D13*
X98540000Y103080000D03*
X92190000Y100540000D03*
D14*
X102140000Y103080000D03*
X88590000Y100540000D03*
%TD*%
D12*
%TO.C,SW1x3*%
X115200000Y100000000D03*
D13*
X117740000Y105080000D03*
X111390000Y102540000D03*
D14*
X121340000Y105080000D03*
X107790000Y102540000D03*
%TD*%
D12*
%TO.C,SW1x4*%
X134400000Y98000000D03*
D13*
X136940000Y103080000D03*
X130590000Y100540000D03*
D14*
X140540000Y103080000D03*
X126990000Y100540000D03*
%TD*%
D12*
%TO.C,SW1x5*%
X153600000Y96000000D03*
D13*
X156140000Y101080000D03*
X149790000Y98540000D03*
D14*
X159740000Y101080000D03*
X146190000Y98540000D03*
%TD*%
D12*
%TO.C,SW2x0*%
X57600000Y76800000D03*
D13*
X60140000Y81880000D03*
X53790000Y79340000D03*
D14*
X63740000Y81880000D03*
X50190000Y79340000D03*
%TD*%
D12*
%TO.C,SW2x1*%
X76800000Y76800000D03*
D13*
X79340000Y81880000D03*
X72990000Y79340000D03*
D14*
X82940000Y81880000D03*
X69390000Y79340000D03*
%TD*%
D12*
%TO.C,SW2x2*%
X96000000Y78800000D03*
D13*
X98540000Y83880000D03*
X92190000Y81340000D03*
D14*
X102140000Y83880000D03*
X88590000Y81340000D03*
%TD*%
D12*
%TO.C,SW2x3*%
X115200000Y80800000D03*
D13*
X117740000Y85880000D03*
X111390000Y83340000D03*
D14*
X121340000Y85880000D03*
X107790000Y83340000D03*
%TD*%
D12*
%TO.C,SW2x4*%
X134400000Y78800000D03*
D13*
X136940000Y83880000D03*
X130590000Y81340000D03*
D14*
X140540000Y83880000D03*
X126990000Y81340000D03*
%TD*%
D12*
%TO.C,SW2x5*%
X153600000Y76800000D03*
D13*
X156140000Y81880000D03*
X149790000Y79340000D03*
D14*
X159740000Y81880000D03*
X146190000Y79340000D03*
%TD*%
D12*
%TO.C,SW3x0*%
X57600000Y57600000D03*
D13*
X60140000Y62680000D03*
X53790000Y60140000D03*
D14*
X63740000Y62680000D03*
X50190000Y60140000D03*
%TD*%
D12*
%TO.C,SW3x1*%
X76800000Y57600000D03*
D13*
X79340000Y62680000D03*
X72990000Y60140000D03*
D14*
X82940000Y62680000D03*
X69390000Y60140000D03*
%TD*%
D12*
%TO.C,SW3x2*%
X96000000Y59600000D03*
D13*
X98540000Y64680000D03*
X92190000Y62140000D03*
D14*
X102140000Y64680000D03*
X88590000Y62140000D03*
%TD*%
D12*
%TO.C,SW3x3*%
X115200000Y61600000D03*
D13*
X117740000Y66680000D03*
X111390000Y64140000D03*
D14*
X121340000Y66680000D03*
X107790000Y64140000D03*
%TD*%
D12*
%TO.C,SW3x4*%
X134400000Y59600000D03*
D13*
X136940000Y64680000D03*
X130590000Y62140000D03*
D14*
X140540000Y64680000D03*
X126990000Y62140000D03*
%TD*%
D12*
%TO.C,SW3x5*%
X153600000Y57600000D03*
D13*
X156140000Y62680000D03*
X149790000Y60140000D03*
D14*
X159740000Y62680000D03*
X146190000Y60140000D03*
%TD*%
D12*
%TO.C,SW3x6*%
X172800000Y48000000D03*
D13*
X175340000Y53080000D03*
X168990000Y50540000D03*
D14*
X178940000Y53080000D03*
X165390000Y50540000D03*
%TD*%
D12*
%TO.C,SW4x0*%
X57600000Y38400000D03*
D13*
X60140000Y43480000D03*
X53790000Y40940000D03*
D14*
X63740000Y43480000D03*
X50190000Y40940000D03*
%TD*%
D12*
%TO.C,SW4x1*%
X76800000Y38400000D03*
D13*
X79340000Y43480000D03*
X72990000Y40940000D03*
D14*
X82940000Y43480000D03*
X69390000Y40940000D03*
%TD*%
D12*
%TO.C,SW4x2*%
X96000000Y40400000D03*
D13*
X98540000Y45480000D03*
X92190000Y42940000D03*
D14*
X102140000Y45480000D03*
X88590000Y42940000D03*
%TD*%
D12*
%TO.C,SW4x3*%
X115200000Y42400000D03*
D13*
X117740000Y47480000D03*
X111390000Y44940000D03*
D14*
X121340000Y47480000D03*
X107790000Y44940000D03*
%TD*%
D12*
%TO.C,SW4x4*%
X134400000Y40400000D03*
D13*
X136940000Y45480000D03*
X130590000Y42940000D03*
D14*
X140540000Y45480000D03*
X126990000Y42940000D03*
%TD*%
D12*
%TO.C,SW4x5*%
X153600000Y38400000D03*
D13*
X156140000Y43480000D03*
X149790000Y40940000D03*
D14*
X159740000Y43480000D03*
X146190000Y40940000D03*
%TD*%
D12*
%TO.C,SW5x0*%
X57600000Y19200000D03*
D13*
X60140000Y24280000D03*
X53790000Y21740000D03*
D14*
X63740000Y24280000D03*
X50190000Y21740000D03*
%TD*%
D12*
%TO.C,SW5x1*%
X76800000Y19200000D03*
D13*
X79340000Y24280000D03*
X72990000Y21740000D03*
D14*
X82940000Y24280000D03*
X69390000Y21740000D03*
%TD*%
D12*
%TO.C,SW5x2*%
X96000000Y19200000D03*
D13*
X98540000Y24280000D03*
X92190000Y21740000D03*
D14*
X102140000Y24280000D03*
X88590000Y21740000D03*
%TD*%
D12*
%TO.C,SW5x4*%
X139200000Y19200000D03*
D13*
X141740000Y24280000D03*
X135390000Y21740000D03*
D14*
X145340000Y24280000D03*
X131790000Y21740000D03*
%TD*%
D12*
%TO.C,SW5x6*%
X168000000Y19200000D03*
D13*
X170540000Y24280000D03*
X164190000Y21740000D03*
D14*
X174140000Y24280000D03*
X160590000Y21740000D03*
%TD*%
D12*
%TO.C,SW6x0*%
X57600000Y0D03*
D13*
X60140000Y5080000D03*
X53790000Y2540000D03*
D14*
X63740000Y5080000D03*
X50190000Y2540000D03*
%TD*%
D12*
%TO.C,SW6x1*%
X76800000Y0D03*
D13*
X79340000Y5080000D03*
X72990000Y2540000D03*
D14*
X82940000Y5080000D03*
X69390000Y2540000D03*
%TD*%
D12*
%TO.C,SW6x2*%
X96000000Y0D03*
D13*
X98540000Y5080000D03*
X92190000Y2540000D03*
D14*
X102140000Y5080000D03*
X88590000Y2540000D03*
%TD*%
D12*
%TO.C,SW6x4*%
X139200000Y0D03*
D13*
X141740000Y5080000D03*
X135390000Y2540000D03*
D14*
X145340000Y5080000D03*
X131790000Y2540000D03*
%TD*%
D12*
%TO.C,SW6x6*%
X168000000Y0D03*
D13*
X170540000Y5080000D03*
X164190000Y2540000D03*
D14*
X174140000Y5080000D03*
X160590000Y2540000D03*
%TD*%
D17*
%TO.C,U1*%
X36420000Y126630000D03*
D18*
X36420000Y124090000D03*
X36420000Y121550000D03*
X36420000Y119010000D03*
X36420000Y116470000D03*
X36420000Y113930000D03*
X36420000Y111390000D03*
X36420000Y108850000D03*
X36420000Y106310000D03*
X36420000Y103770000D03*
X36420000Y101230000D03*
X36420000Y98690000D03*
X36420000Y96150000D03*
X36420000Y93610000D03*
X36420000Y91070000D03*
X36420000Y88530000D03*
X36420000Y85990000D03*
X36420000Y83450000D03*
X36420000Y80910000D03*
X36420000Y78370000D03*
X32610000Y82180000D03*
X30070000Y82180000D03*
X27530000Y82180000D03*
D17*
X24990000Y82180000D03*
D18*
X21180000Y78370000D03*
X21180000Y80910000D03*
X21180000Y83450000D03*
X21180000Y85990000D03*
X21180000Y88530000D03*
X21180000Y91070000D03*
X21180000Y93610000D03*
X21180000Y96150000D03*
X21180000Y98690000D03*
X21180000Y101230000D03*
X21180000Y103770000D03*
X21180000Y106310000D03*
X21180000Y108850000D03*
X21180000Y111390000D03*
X21180000Y113930000D03*
X21180000Y116470000D03*
X21180000Y119010000D03*
X21180000Y121550000D03*
X21180000Y124090000D03*
D17*
X21180000Y126630000D03*
%TD*%
D19*
%TO.C,SW1*%
X12628000Y125728000D03*
D17*
X15168000Y125728000D03*
%TD*%
D19*
%TO.C,J1*%
X167720000Y119400000D03*
X170260000Y119400000D03*
X172800000Y119400000D03*
X175340000Y119400000D03*
D17*
X177880000Y119400000D03*
%TD*%
D15*
%TO.C,R1*%
X19968000Y60672000D03*
D20*
X27588000Y60672000D03*
%TD*%
D15*
%TO.C,R2*%
X37572000Y60672000D03*
D20*
X29952000Y60672000D03*
%TD*%
D19*
%TO.C,U2*%
X37690000Y64000000D03*
X35150000Y64000000D03*
X32610000Y64000000D03*
X30070000Y64000000D03*
X27530000Y64000000D03*
X24990000Y64000000D03*
X22450000Y64000000D03*
D17*
X19910000Y64000000D03*
%TD*%
D19*
%TO.C,J2*%
X41000000Y118464000D03*
X43540000Y118464000D03*
D17*
X46080000Y118464000D03*
%TD*%
M02*
