%TF.GenerationSoftware,KiCad,Pcbnew,5.1.10-88a1d61d58~88~ubuntu20.04.1*%
%TF.CreationDate,2021-05-17T22:02:50+01:00*%
%TF.ProjectId,left_side,6c656674-5f73-4696-9465-2e6b69636164,rev?*%
%TF.SameCoordinates,Original*%
%TF.FileFunction,Legend,Top*%
%TF.FilePolarity,Positive*%
%FSLAX46Y46*%
G04 Gerber Fmt 4.6, Leading zero omitted, Abs format (unit mm)*
G04 Created by KiCad (PCBNEW 5.1.10-88a1d61d58~88~ubuntu20.04.1) date 2021-05-17 22:02:50*
%MOMM*%
%LPD*%
G01*
G04 APERTURE LIST*
%ADD10C,0.150000*%
%ADD11C,0.120000*%
G04 APERTURE END LIST*
D10*
X105600000Y109600000D02*
X124800000Y109600000D01*
X105600000Y90400000D02*
X124800000Y90400000D01*
X105600000Y71200000D02*
X124800000Y71200000D01*
X105600000Y52000000D02*
X124800000Y52000000D01*
X105600000Y32800000D02*
X124800000Y32800000D01*
X86400000Y30800000D02*
X105600000Y30800000D01*
X86400000Y50000000D02*
X105600000Y50000000D01*
X86400000Y69200000D02*
X105600000Y69200000D01*
X86400000Y88400000D02*
X105600000Y88400000D01*
X86400000Y107600000D02*
X105600000Y107600000D01*
X124800000Y107600000D02*
X144000000Y107600000D01*
X124800000Y88400000D02*
X144000000Y88400000D01*
X124800000Y69200000D02*
X144000000Y69200000D01*
X144000000Y50000000D02*
X124800000Y50000000D01*
X124800000Y30800000D02*
X144000000Y30800000D01*
X153600000Y-9600000D02*
X153600000Y28800000D01*
X144000000Y48000000D02*
X163200000Y48000000D01*
X144000000Y67200000D02*
X163200000Y67200000D01*
X144000000Y86400000D02*
X163200000Y86400000D01*
X144000000Y105600000D02*
X163200000Y105600000D01*
X48000000Y105600000D02*
X86400000Y105600000D01*
X48000000Y86400000D02*
X86400000Y86400000D01*
X86400000Y67200000D02*
X48000000Y67200000D01*
X48000000Y48000000D02*
X86400000Y48000000D01*
X124800000Y9600000D02*
X182400000Y9600000D01*
X105600000Y28800000D02*
X48000000Y28800000D01*
X105600000Y9600000D02*
X105600000Y28800000D01*
X48000000Y9600000D02*
X105600000Y9600000D01*
X144000000Y126800000D02*
X124800000Y126800000D01*
X124800000Y128800000D02*
X124800000Y-9600000D01*
X105600000Y128800000D02*
X105600000Y-9600000D01*
X86400000Y126800000D02*
X105600000Y126800000D01*
X67200000Y-9600000D02*
X67200000Y124800000D01*
X86400000Y126800000D02*
X86400000Y-9600000D01*
X182400000Y115600000D02*
X163200000Y115600000D01*
X163200000Y124800000D02*
X163200000Y28800000D01*
X144000000Y124800000D02*
X163200000Y124800000D01*
X144000000Y28800000D02*
X144000000Y126800000D01*
X182400000Y28800000D02*
X144000000Y28800000D01*
X163200000Y67200000D02*
X182400000Y67200000D01*
X163200000Y96000000D02*
X182400000Y96000000D01*
X48000000Y124800000D02*
X86400000Y124800000D01*
X48000000Y-9600000D02*
X48000000Y124800000D01*
D11*
%TO.C,SW1x6*%
X180600000Y89400000D02*
X180600000Y73800000D01*
X180600000Y73800000D02*
X165000000Y73800000D01*
X165000000Y89400000D02*
X180600000Y89400000D01*
X165000000Y89400000D02*
X165000000Y73800000D01*
%TO.C,SW0x0*%
X65400000Y123000000D02*
X65400000Y107400000D01*
X65400000Y107400000D02*
X49800000Y107400000D01*
X49800000Y123000000D02*
X65400000Y123000000D01*
X49800000Y123000000D02*
X49800000Y107400000D01*
%TO.C,SW0x1*%
X84600000Y123000000D02*
X84600000Y107400000D01*
X84600000Y107400000D02*
X69000000Y107400000D01*
X69000000Y123000000D02*
X84600000Y123000000D01*
X69000000Y123000000D02*
X69000000Y107400000D01*
%TO.C,SW0x2*%
X103800000Y125000000D02*
X103800000Y109400000D01*
X103800000Y109400000D02*
X88200000Y109400000D01*
X88200000Y125000000D02*
X103800000Y125000000D01*
X88200000Y125000000D02*
X88200000Y109400000D01*
%TO.C,SW0x3*%
X123000000Y127000000D02*
X123000000Y111400000D01*
X123000000Y111400000D02*
X107400000Y111400000D01*
X107400000Y127000000D02*
X123000000Y127000000D01*
X107400000Y127000000D02*
X107400000Y111400000D01*
%TO.C,SW0x4*%
X142200000Y125000000D02*
X142200000Y109400000D01*
X142200000Y109400000D02*
X126600000Y109400000D01*
X126600000Y125000000D02*
X142200000Y125000000D01*
X126600000Y125000000D02*
X126600000Y109400000D01*
%TO.C,SW0x5*%
X161400000Y123000000D02*
X161400000Y107400000D01*
X161400000Y107400000D02*
X145800000Y107400000D01*
X145800000Y123000000D02*
X161400000Y123000000D01*
X145800000Y123000000D02*
X145800000Y107400000D01*
%TO.C,SW0x6*%
X180600000Y113400000D02*
X180600000Y97800000D01*
X180600000Y97800000D02*
X165000000Y97800000D01*
X165000000Y113400000D02*
X180600000Y113400000D01*
X165000000Y113400000D02*
X165000000Y97800000D01*
%TO.C,SW1x0*%
X65400000Y103800000D02*
X65400000Y88200000D01*
X65400000Y88200000D02*
X49800000Y88200000D01*
X49800000Y103800000D02*
X65400000Y103800000D01*
X49800000Y103800000D02*
X49800000Y88200000D01*
%TO.C,SW1x1*%
X84600000Y103800000D02*
X84600000Y88200000D01*
X84600000Y88200000D02*
X69000000Y88200000D01*
X69000000Y103800000D02*
X84600000Y103800000D01*
X69000000Y103800000D02*
X69000000Y88200000D01*
%TO.C,SW1x2*%
X103800000Y105800000D02*
X103800000Y90200000D01*
X103800000Y90200000D02*
X88200000Y90200000D01*
X88200000Y105800000D02*
X103800000Y105800000D01*
X88200000Y105800000D02*
X88200000Y90200000D01*
%TO.C,SW1x3*%
X123000000Y107800000D02*
X123000000Y92200000D01*
X123000000Y92200000D02*
X107400000Y92200000D01*
X107400000Y107800000D02*
X123000000Y107800000D01*
X107400000Y107800000D02*
X107400000Y92200000D01*
%TO.C,SW1x4*%
X142200000Y105800000D02*
X142200000Y90200000D01*
X142200000Y90200000D02*
X126600000Y90200000D01*
X126600000Y105800000D02*
X142200000Y105800000D01*
X126600000Y105800000D02*
X126600000Y90200000D01*
%TO.C,SW1x5*%
X161400000Y103800000D02*
X161400000Y88200000D01*
X161400000Y88200000D02*
X145800000Y88200000D01*
X145800000Y103800000D02*
X161400000Y103800000D01*
X145800000Y103800000D02*
X145800000Y88200000D01*
%TO.C,SW2x0*%
X65400000Y84600000D02*
X65400000Y69000000D01*
X65400000Y69000000D02*
X49800000Y69000000D01*
X49800000Y84600000D02*
X65400000Y84600000D01*
X49800000Y84600000D02*
X49800000Y69000000D01*
%TO.C,SW2x1*%
X84600000Y84600000D02*
X84600000Y69000000D01*
X84600000Y69000000D02*
X69000000Y69000000D01*
X69000000Y84600000D02*
X84600000Y84600000D01*
X69000000Y84600000D02*
X69000000Y69000000D01*
%TO.C,SW2x2*%
X103800000Y86600000D02*
X103800000Y71000000D01*
X103800000Y71000000D02*
X88200000Y71000000D01*
X88200000Y86600000D02*
X103800000Y86600000D01*
X88200000Y86600000D02*
X88200000Y71000000D01*
%TO.C,SW2x3*%
X123000000Y88600000D02*
X123000000Y73000000D01*
X123000000Y73000000D02*
X107400000Y73000000D01*
X107400000Y88600000D02*
X123000000Y88600000D01*
X107400000Y88600000D02*
X107400000Y73000000D01*
%TO.C,SW2x4*%
X142200000Y86600000D02*
X142200000Y71000000D01*
X142200000Y71000000D02*
X126600000Y71000000D01*
X126600000Y86600000D02*
X142200000Y86600000D01*
X126600000Y86600000D02*
X126600000Y71000000D01*
%TO.C,SW2x5*%
X161400000Y84600000D02*
X161400000Y69000000D01*
X161400000Y69000000D02*
X145800000Y69000000D01*
X145800000Y84600000D02*
X161400000Y84600000D01*
X145800000Y84600000D02*
X145800000Y69000000D01*
%TO.C,SW3x0*%
X65400000Y65400000D02*
X65400000Y49800000D01*
X65400000Y49800000D02*
X49800000Y49800000D01*
X49800000Y65400000D02*
X65400000Y65400000D01*
X49800000Y65400000D02*
X49800000Y49800000D01*
%TO.C,SW3x1*%
X84600000Y65400000D02*
X84600000Y49800000D01*
X84600000Y49800000D02*
X69000000Y49800000D01*
X69000000Y65400000D02*
X84600000Y65400000D01*
X69000000Y65400000D02*
X69000000Y49800000D01*
%TO.C,SW3x2*%
X103800000Y67400000D02*
X103800000Y51800000D01*
X103800000Y51800000D02*
X88200000Y51800000D01*
X88200000Y67400000D02*
X103800000Y67400000D01*
X88200000Y67400000D02*
X88200000Y51800000D01*
%TO.C,SW3x3*%
X123000000Y69400000D02*
X123000000Y53800000D01*
X123000000Y53800000D02*
X107400000Y53800000D01*
X107400000Y69400000D02*
X123000000Y69400000D01*
X107400000Y69400000D02*
X107400000Y53800000D01*
%TO.C,SW3x4*%
X142200000Y67400000D02*
X142200000Y51800000D01*
X142200000Y51800000D02*
X126600000Y51800000D01*
X126600000Y67400000D02*
X142200000Y67400000D01*
X126600000Y67400000D02*
X126600000Y51800000D01*
%TO.C,SW3x5*%
X161400000Y65400000D02*
X161400000Y49800000D01*
X161400000Y49800000D02*
X145800000Y49800000D01*
X145800000Y65400000D02*
X161400000Y65400000D01*
X145800000Y65400000D02*
X145800000Y49800000D01*
%TO.C,SW3x6*%
X180600000Y55800000D02*
X180600000Y40200000D01*
X180600000Y40200000D02*
X165000000Y40200000D01*
X165000000Y55800000D02*
X180600000Y55800000D01*
X165000000Y55800000D02*
X165000000Y40200000D01*
%TO.C,SW4x0*%
X65400000Y46200000D02*
X65400000Y30600000D01*
X65400000Y30600000D02*
X49800000Y30600000D01*
X49800000Y46200000D02*
X65400000Y46200000D01*
X49800000Y46200000D02*
X49800000Y30600000D01*
%TO.C,SW4x1*%
X84600000Y46200000D02*
X84600000Y30600000D01*
X84600000Y30600000D02*
X69000000Y30600000D01*
X69000000Y46200000D02*
X84600000Y46200000D01*
X69000000Y46200000D02*
X69000000Y30600000D01*
%TO.C,SW4x2*%
X103800000Y48200000D02*
X103800000Y32600000D01*
X103800000Y32600000D02*
X88200000Y32600000D01*
X88200000Y48200000D02*
X103800000Y48200000D01*
X88200000Y48200000D02*
X88200000Y32600000D01*
%TO.C,SW4x3*%
X123000000Y50200000D02*
X123000000Y34600000D01*
X123000000Y34600000D02*
X107400000Y34600000D01*
X107400000Y50200000D02*
X123000000Y50200000D01*
X107400000Y50200000D02*
X107400000Y34600000D01*
%TO.C,SW4x4*%
X142200000Y48200000D02*
X142200000Y32600000D01*
X142200000Y32600000D02*
X126600000Y32600000D01*
X126600000Y48200000D02*
X142200000Y48200000D01*
X126600000Y48200000D02*
X126600000Y32600000D01*
%TO.C,SW4x5*%
X161400000Y46200000D02*
X161400000Y30600000D01*
X161400000Y30600000D02*
X145800000Y30600000D01*
X145800000Y46200000D02*
X161400000Y46200000D01*
X145800000Y46200000D02*
X145800000Y30600000D01*
%TO.C,SW5x0*%
X65400000Y27000000D02*
X65400000Y11400000D01*
X65400000Y11400000D02*
X49800000Y11400000D01*
X49800000Y27000000D02*
X65400000Y27000000D01*
X49800000Y27000000D02*
X49800000Y11400000D01*
%TO.C,SW5x1*%
X84600000Y27000000D02*
X84600000Y11400000D01*
X84600000Y11400000D02*
X69000000Y11400000D01*
X69000000Y27000000D02*
X84600000Y27000000D01*
X69000000Y27000000D02*
X69000000Y11400000D01*
%TO.C,SW5x2*%
X103800000Y27000000D02*
X103800000Y11400000D01*
X103800000Y11400000D02*
X88200000Y11400000D01*
X88200000Y27000000D02*
X103800000Y27000000D01*
X88200000Y27000000D02*
X88200000Y11400000D01*
%TO.C,SW5x4*%
X147000000Y27000000D02*
X147000000Y11400000D01*
X147000000Y11400000D02*
X131400000Y11400000D01*
X131400000Y27000000D02*
X147000000Y27000000D01*
X131400000Y27000000D02*
X131400000Y11400000D01*
%TO.C,SW5x6*%
X175800000Y27000000D02*
X175800000Y11400000D01*
X175800000Y11400000D02*
X160200000Y11400000D01*
X160200000Y27000000D02*
X175800000Y27000000D01*
X160200000Y27000000D02*
X160200000Y11400000D01*
%TO.C,SW6x0*%
X65400000Y7800000D02*
X65400000Y-7800000D01*
X65400000Y-7800000D02*
X49800000Y-7800000D01*
X49800000Y7800000D02*
X65400000Y7800000D01*
X49800000Y7800000D02*
X49800000Y-7800000D01*
%TO.C,SW6x1*%
X84600000Y7800000D02*
X84600000Y-7800000D01*
X84600000Y-7800000D02*
X69000000Y-7800000D01*
X69000000Y7800000D02*
X84600000Y7800000D01*
X69000000Y7800000D02*
X69000000Y-7800000D01*
%TO.C,SW6x2*%
X103800000Y7800000D02*
X103800000Y-7800000D01*
X103800000Y-7800000D02*
X88200000Y-7800000D01*
X88200000Y7800000D02*
X103800000Y7800000D01*
X88200000Y7800000D02*
X88200000Y-7800000D01*
%TO.C,SW6x4*%
X147000000Y7800000D02*
X147000000Y-7800000D01*
X147000000Y-7800000D02*
X131400000Y-7800000D01*
X131400000Y7800000D02*
X147000000Y7800000D01*
X131400000Y7800000D02*
X131400000Y-7800000D01*
%TO.C,SW6x6*%
X175800000Y7800000D02*
X175800000Y-7800000D01*
X175800000Y-7800000D02*
X160200000Y-7800000D01*
X160200000Y7800000D02*
X175800000Y7800000D01*
X160200000Y7800000D02*
X160200000Y-7800000D01*
%TO.C,SW1*%
X16498000Y127058000D02*
X16498000Y125728000D01*
X15168000Y127058000D02*
X16498000Y127058000D01*
X13898000Y127058000D02*
X13898000Y124398000D01*
X13898000Y124398000D02*
X11298000Y124398000D01*
X13898000Y127058000D02*
X11298000Y127058000D01*
X11298000Y127058000D02*
X11298000Y124398000D01*
%TO.C,J1*%
X179210000Y120730000D02*
X179210000Y119400000D01*
X177880000Y120730000D02*
X179210000Y120730000D01*
X176610000Y120730000D02*
X176610000Y118070000D01*
X176610000Y118070000D02*
X166390000Y118070000D01*
X176610000Y120730000D02*
X166390000Y120730000D01*
X166390000Y120730000D02*
X166390000Y118070000D01*
%TO.C,R1*%
X20508000Y62042000D02*
X20508000Y61712000D01*
X27048000Y62042000D02*
X20508000Y62042000D01*
X27048000Y61712000D02*
X27048000Y62042000D01*
X20508000Y59302000D02*
X20508000Y59632000D01*
X27048000Y59302000D02*
X20508000Y59302000D01*
X27048000Y59632000D02*
X27048000Y59302000D01*
%TO.C,R2*%
X37032000Y59302000D02*
X37032000Y59632000D01*
X30492000Y59302000D02*
X37032000Y59302000D01*
X30492000Y59632000D02*
X30492000Y59302000D01*
X37032000Y62042000D02*
X37032000Y61712000D01*
X30492000Y62042000D02*
X37032000Y62042000D01*
X30492000Y61712000D02*
X30492000Y62042000D01*
%TO.C,U2*%
X18580000Y62670000D02*
X18580000Y64000000D01*
X19910000Y62670000D02*
X18580000Y62670000D01*
X21180000Y62670000D02*
X21180000Y65330000D01*
X21180000Y65330000D02*
X39020000Y65330000D01*
X21180000Y62670000D02*
X39020000Y62670000D01*
X39020000Y62670000D02*
X39020000Y65330000D01*
%TO.C,J2*%
X47410000Y119794000D02*
X47410000Y118464000D01*
X46080000Y119794000D02*
X47410000Y119794000D01*
X44810000Y119794000D02*
X44810000Y117134000D01*
X44810000Y117134000D02*
X39670000Y117134000D01*
X44810000Y119794000D02*
X39670000Y119794000D01*
X39670000Y119794000D02*
X39670000Y117134000D01*
%TD*%
%TO.C,SW1x6*%
D10*
X170585714Y89835238D02*
X170728571Y89787619D01*
X170966666Y89787619D01*
X171061904Y89835238D01*
X171109523Y89882857D01*
X171157142Y89978095D01*
X171157142Y90073333D01*
X171109523Y90168571D01*
X171061904Y90216190D01*
X170966666Y90263809D01*
X170776190Y90311428D01*
X170680952Y90359047D01*
X170633333Y90406666D01*
X170585714Y90501904D01*
X170585714Y90597142D01*
X170633333Y90692380D01*
X170680952Y90740000D01*
X170776190Y90787619D01*
X171014285Y90787619D01*
X171157142Y90740000D01*
X171490476Y90787619D02*
X171728571Y89787619D01*
X171919047Y90501904D01*
X172109523Y89787619D01*
X172347619Y90787619D01*
X173252380Y89787619D02*
X172680952Y89787619D01*
X172966666Y89787619D02*
X172966666Y90787619D01*
X172871428Y90644761D01*
X172776190Y90549523D01*
X172680952Y90501904D01*
X173585714Y89787619D02*
X174109523Y90454285D01*
X173585714Y90454285D02*
X174109523Y89787619D01*
X174919047Y90787619D02*
X174728571Y90787619D01*
X174633333Y90740000D01*
X174585714Y90692380D01*
X174490476Y90549523D01*
X174442857Y90359047D01*
X174442857Y89978095D01*
X174490476Y89882857D01*
X174538095Y89835238D01*
X174633333Y89787619D01*
X174823809Y89787619D01*
X174919047Y89835238D01*
X174966666Y89882857D01*
X175014285Y89978095D01*
X175014285Y90216190D01*
X174966666Y90311428D01*
X174919047Y90359047D01*
X174823809Y90406666D01*
X174633333Y90406666D01*
X174538095Y90359047D01*
X174490476Y90311428D01*
X174442857Y90216190D01*
%TO.C,SW0x0*%
X55385714Y123435238D02*
X55528571Y123387619D01*
X55766666Y123387619D01*
X55861904Y123435238D01*
X55909523Y123482857D01*
X55957142Y123578095D01*
X55957142Y123673333D01*
X55909523Y123768571D01*
X55861904Y123816190D01*
X55766666Y123863809D01*
X55576190Y123911428D01*
X55480952Y123959047D01*
X55433333Y124006666D01*
X55385714Y124101904D01*
X55385714Y124197142D01*
X55433333Y124292380D01*
X55480952Y124340000D01*
X55576190Y124387619D01*
X55814285Y124387619D01*
X55957142Y124340000D01*
X56290476Y124387619D02*
X56528571Y123387619D01*
X56719047Y124101904D01*
X56909523Y123387619D01*
X57147619Y124387619D01*
X57719047Y124387619D02*
X57814285Y124387619D01*
X57909523Y124340000D01*
X57957142Y124292380D01*
X58004761Y124197142D01*
X58052380Y124006666D01*
X58052380Y123768571D01*
X58004761Y123578095D01*
X57957142Y123482857D01*
X57909523Y123435238D01*
X57814285Y123387619D01*
X57719047Y123387619D01*
X57623809Y123435238D01*
X57576190Y123482857D01*
X57528571Y123578095D01*
X57480952Y123768571D01*
X57480952Y124006666D01*
X57528571Y124197142D01*
X57576190Y124292380D01*
X57623809Y124340000D01*
X57719047Y124387619D01*
X58385714Y123387619D02*
X58909523Y124054285D01*
X58385714Y124054285D02*
X58909523Y123387619D01*
X59480952Y124387619D02*
X59576190Y124387619D01*
X59671428Y124340000D01*
X59719047Y124292380D01*
X59766666Y124197142D01*
X59814285Y124006666D01*
X59814285Y123768571D01*
X59766666Y123578095D01*
X59719047Y123482857D01*
X59671428Y123435238D01*
X59576190Y123387619D01*
X59480952Y123387619D01*
X59385714Y123435238D01*
X59338095Y123482857D01*
X59290476Y123578095D01*
X59242857Y123768571D01*
X59242857Y124006666D01*
X59290476Y124197142D01*
X59338095Y124292380D01*
X59385714Y124340000D01*
X59480952Y124387619D01*
%TO.C,SW0x1*%
X74585714Y123435238D02*
X74728571Y123387619D01*
X74966666Y123387619D01*
X75061904Y123435238D01*
X75109523Y123482857D01*
X75157142Y123578095D01*
X75157142Y123673333D01*
X75109523Y123768571D01*
X75061904Y123816190D01*
X74966666Y123863809D01*
X74776190Y123911428D01*
X74680952Y123959047D01*
X74633333Y124006666D01*
X74585714Y124101904D01*
X74585714Y124197142D01*
X74633333Y124292380D01*
X74680952Y124340000D01*
X74776190Y124387619D01*
X75014285Y124387619D01*
X75157142Y124340000D01*
X75490476Y124387619D02*
X75728571Y123387619D01*
X75919047Y124101904D01*
X76109523Y123387619D01*
X76347619Y124387619D01*
X76919047Y124387619D02*
X77014285Y124387619D01*
X77109523Y124340000D01*
X77157142Y124292380D01*
X77204761Y124197142D01*
X77252380Y124006666D01*
X77252380Y123768571D01*
X77204761Y123578095D01*
X77157142Y123482857D01*
X77109523Y123435238D01*
X77014285Y123387619D01*
X76919047Y123387619D01*
X76823809Y123435238D01*
X76776190Y123482857D01*
X76728571Y123578095D01*
X76680952Y123768571D01*
X76680952Y124006666D01*
X76728571Y124197142D01*
X76776190Y124292380D01*
X76823809Y124340000D01*
X76919047Y124387619D01*
X77585714Y123387619D02*
X78109523Y124054285D01*
X77585714Y124054285D02*
X78109523Y123387619D01*
X79014285Y123387619D02*
X78442857Y123387619D01*
X78728571Y123387619D02*
X78728571Y124387619D01*
X78633333Y124244761D01*
X78538095Y124149523D01*
X78442857Y124101904D01*
%TO.C,SW0x2*%
X93785714Y125435238D02*
X93928571Y125387619D01*
X94166666Y125387619D01*
X94261904Y125435238D01*
X94309523Y125482857D01*
X94357142Y125578095D01*
X94357142Y125673333D01*
X94309523Y125768571D01*
X94261904Y125816190D01*
X94166666Y125863809D01*
X93976190Y125911428D01*
X93880952Y125959047D01*
X93833333Y126006666D01*
X93785714Y126101904D01*
X93785714Y126197142D01*
X93833333Y126292380D01*
X93880952Y126340000D01*
X93976190Y126387619D01*
X94214285Y126387619D01*
X94357142Y126340000D01*
X94690476Y126387619D02*
X94928571Y125387619D01*
X95119047Y126101904D01*
X95309523Y125387619D01*
X95547619Y126387619D01*
X96119047Y126387619D02*
X96214285Y126387619D01*
X96309523Y126340000D01*
X96357142Y126292380D01*
X96404761Y126197142D01*
X96452380Y126006666D01*
X96452380Y125768571D01*
X96404761Y125578095D01*
X96357142Y125482857D01*
X96309523Y125435238D01*
X96214285Y125387619D01*
X96119047Y125387619D01*
X96023809Y125435238D01*
X95976190Y125482857D01*
X95928571Y125578095D01*
X95880952Y125768571D01*
X95880952Y126006666D01*
X95928571Y126197142D01*
X95976190Y126292380D01*
X96023809Y126340000D01*
X96119047Y126387619D01*
X96785714Y125387619D02*
X97309523Y126054285D01*
X96785714Y126054285D02*
X97309523Y125387619D01*
X97642857Y126292380D02*
X97690476Y126340000D01*
X97785714Y126387619D01*
X98023809Y126387619D01*
X98119047Y126340000D01*
X98166666Y126292380D01*
X98214285Y126197142D01*
X98214285Y126101904D01*
X98166666Y125959047D01*
X97595238Y125387619D01*
X98214285Y125387619D01*
%TO.C,SW0x3*%
X112985714Y127435238D02*
X113128571Y127387619D01*
X113366666Y127387619D01*
X113461904Y127435238D01*
X113509523Y127482857D01*
X113557142Y127578095D01*
X113557142Y127673333D01*
X113509523Y127768571D01*
X113461904Y127816190D01*
X113366666Y127863809D01*
X113176190Y127911428D01*
X113080952Y127959047D01*
X113033333Y128006666D01*
X112985714Y128101904D01*
X112985714Y128197142D01*
X113033333Y128292380D01*
X113080952Y128340000D01*
X113176190Y128387619D01*
X113414285Y128387619D01*
X113557142Y128340000D01*
X113890476Y128387619D02*
X114128571Y127387619D01*
X114319047Y128101904D01*
X114509523Y127387619D01*
X114747619Y128387619D01*
X115319047Y128387619D02*
X115414285Y128387619D01*
X115509523Y128340000D01*
X115557142Y128292380D01*
X115604761Y128197142D01*
X115652380Y128006666D01*
X115652380Y127768571D01*
X115604761Y127578095D01*
X115557142Y127482857D01*
X115509523Y127435238D01*
X115414285Y127387619D01*
X115319047Y127387619D01*
X115223809Y127435238D01*
X115176190Y127482857D01*
X115128571Y127578095D01*
X115080952Y127768571D01*
X115080952Y128006666D01*
X115128571Y128197142D01*
X115176190Y128292380D01*
X115223809Y128340000D01*
X115319047Y128387619D01*
X115985714Y127387619D02*
X116509523Y128054285D01*
X115985714Y128054285D02*
X116509523Y127387619D01*
X116795238Y128387619D02*
X117414285Y128387619D01*
X117080952Y128006666D01*
X117223809Y128006666D01*
X117319047Y127959047D01*
X117366666Y127911428D01*
X117414285Y127816190D01*
X117414285Y127578095D01*
X117366666Y127482857D01*
X117319047Y127435238D01*
X117223809Y127387619D01*
X116938095Y127387619D01*
X116842857Y127435238D01*
X116795238Y127482857D01*
%TO.C,SW0x4*%
X132185714Y125435238D02*
X132328571Y125387619D01*
X132566666Y125387619D01*
X132661904Y125435238D01*
X132709523Y125482857D01*
X132757142Y125578095D01*
X132757142Y125673333D01*
X132709523Y125768571D01*
X132661904Y125816190D01*
X132566666Y125863809D01*
X132376190Y125911428D01*
X132280952Y125959047D01*
X132233333Y126006666D01*
X132185714Y126101904D01*
X132185714Y126197142D01*
X132233333Y126292380D01*
X132280952Y126340000D01*
X132376190Y126387619D01*
X132614285Y126387619D01*
X132757142Y126340000D01*
X133090476Y126387619D02*
X133328571Y125387619D01*
X133519047Y126101904D01*
X133709523Y125387619D01*
X133947619Y126387619D01*
X134519047Y126387619D02*
X134614285Y126387619D01*
X134709523Y126340000D01*
X134757142Y126292380D01*
X134804761Y126197142D01*
X134852380Y126006666D01*
X134852380Y125768571D01*
X134804761Y125578095D01*
X134757142Y125482857D01*
X134709523Y125435238D01*
X134614285Y125387619D01*
X134519047Y125387619D01*
X134423809Y125435238D01*
X134376190Y125482857D01*
X134328571Y125578095D01*
X134280952Y125768571D01*
X134280952Y126006666D01*
X134328571Y126197142D01*
X134376190Y126292380D01*
X134423809Y126340000D01*
X134519047Y126387619D01*
X135185714Y125387619D02*
X135709523Y126054285D01*
X135185714Y126054285D02*
X135709523Y125387619D01*
X136519047Y126054285D02*
X136519047Y125387619D01*
X136280952Y126435238D02*
X136042857Y125720952D01*
X136661904Y125720952D01*
%TO.C,SW0x5*%
X151385714Y123435238D02*
X151528571Y123387619D01*
X151766666Y123387619D01*
X151861904Y123435238D01*
X151909523Y123482857D01*
X151957142Y123578095D01*
X151957142Y123673333D01*
X151909523Y123768571D01*
X151861904Y123816190D01*
X151766666Y123863809D01*
X151576190Y123911428D01*
X151480952Y123959047D01*
X151433333Y124006666D01*
X151385714Y124101904D01*
X151385714Y124197142D01*
X151433333Y124292380D01*
X151480952Y124340000D01*
X151576190Y124387619D01*
X151814285Y124387619D01*
X151957142Y124340000D01*
X152290476Y124387619D02*
X152528571Y123387619D01*
X152719047Y124101904D01*
X152909523Y123387619D01*
X153147619Y124387619D01*
X153719047Y124387619D02*
X153814285Y124387619D01*
X153909523Y124340000D01*
X153957142Y124292380D01*
X154004761Y124197142D01*
X154052380Y124006666D01*
X154052380Y123768571D01*
X154004761Y123578095D01*
X153957142Y123482857D01*
X153909523Y123435238D01*
X153814285Y123387619D01*
X153719047Y123387619D01*
X153623809Y123435238D01*
X153576190Y123482857D01*
X153528571Y123578095D01*
X153480952Y123768571D01*
X153480952Y124006666D01*
X153528571Y124197142D01*
X153576190Y124292380D01*
X153623809Y124340000D01*
X153719047Y124387619D01*
X154385714Y123387619D02*
X154909523Y124054285D01*
X154385714Y124054285D02*
X154909523Y123387619D01*
X155766666Y124387619D02*
X155290476Y124387619D01*
X155242857Y123911428D01*
X155290476Y123959047D01*
X155385714Y124006666D01*
X155623809Y124006666D01*
X155719047Y123959047D01*
X155766666Y123911428D01*
X155814285Y123816190D01*
X155814285Y123578095D01*
X155766666Y123482857D01*
X155719047Y123435238D01*
X155623809Y123387619D01*
X155385714Y123387619D01*
X155290476Y123435238D01*
X155242857Y123482857D01*
%TO.C,SW0x6*%
X170585714Y113835238D02*
X170728571Y113787619D01*
X170966666Y113787619D01*
X171061904Y113835238D01*
X171109523Y113882857D01*
X171157142Y113978095D01*
X171157142Y114073333D01*
X171109523Y114168571D01*
X171061904Y114216190D01*
X170966666Y114263809D01*
X170776190Y114311428D01*
X170680952Y114359047D01*
X170633333Y114406666D01*
X170585714Y114501904D01*
X170585714Y114597142D01*
X170633333Y114692380D01*
X170680952Y114740000D01*
X170776190Y114787619D01*
X171014285Y114787619D01*
X171157142Y114740000D01*
X171490476Y114787619D02*
X171728571Y113787619D01*
X171919047Y114501904D01*
X172109523Y113787619D01*
X172347619Y114787619D01*
X172919047Y114787619D02*
X173014285Y114787619D01*
X173109523Y114740000D01*
X173157142Y114692380D01*
X173204761Y114597142D01*
X173252380Y114406666D01*
X173252380Y114168571D01*
X173204761Y113978095D01*
X173157142Y113882857D01*
X173109523Y113835238D01*
X173014285Y113787619D01*
X172919047Y113787619D01*
X172823809Y113835238D01*
X172776190Y113882857D01*
X172728571Y113978095D01*
X172680952Y114168571D01*
X172680952Y114406666D01*
X172728571Y114597142D01*
X172776190Y114692380D01*
X172823809Y114740000D01*
X172919047Y114787619D01*
X173585714Y113787619D02*
X174109523Y114454285D01*
X173585714Y114454285D02*
X174109523Y113787619D01*
X174919047Y114787619D02*
X174728571Y114787619D01*
X174633333Y114740000D01*
X174585714Y114692380D01*
X174490476Y114549523D01*
X174442857Y114359047D01*
X174442857Y113978095D01*
X174490476Y113882857D01*
X174538095Y113835238D01*
X174633333Y113787619D01*
X174823809Y113787619D01*
X174919047Y113835238D01*
X174966666Y113882857D01*
X175014285Y113978095D01*
X175014285Y114216190D01*
X174966666Y114311428D01*
X174919047Y114359047D01*
X174823809Y114406666D01*
X174633333Y114406666D01*
X174538095Y114359047D01*
X174490476Y114311428D01*
X174442857Y114216190D01*
%TO.C,SW1x0*%
X55385714Y104235238D02*
X55528571Y104187619D01*
X55766666Y104187619D01*
X55861904Y104235238D01*
X55909523Y104282857D01*
X55957142Y104378095D01*
X55957142Y104473333D01*
X55909523Y104568571D01*
X55861904Y104616190D01*
X55766666Y104663809D01*
X55576190Y104711428D01*
X55480952Y104759047D01*
X55433333Y104806666D01*
X55385714Y104901904D01*
X55385714Y104997142D01*
X55433333Y105092380D01*
X55480952Y105140000D01*
X55576190Y105187619D01*
X55814285Y105187619D01*
X55957142Y105140000D01*
X56290476Y105187619D02*
X56528571Y104187619D01*
X56719047Y104901904D01*
X56909523Y104187619D01*
X57147619Y105187619D01*
X58052380Y104187619D02*
X57480952Y104187619D01*
X57766666Y104187619D02*
X57766666Y105187619D01*
X57671428Y105044761D01*
X57576190Y104949523D01*
X57480952Y104901904D01*
X58385714Y104187619D02*
X58909523Y104854285D01*
X58385714Y104854285D02*
X58909523Y104187619D01*
X59480952Y105187619D02*
X59576190Y105187619D01*
X59671428Y105140000D01*
X59719047Y105092380D01*
X59766666Y104997142D01*
X59814285Y104806666D01*
X59814285Y104568571D01*
X59766666Y104378095D01*
X59719047Y104282857D01*
X59671428Y104235238D01*
X59576190Y104187619D01*
X59480952Y104187619D01*
X59385714Y104235238D01*
X59338095Y104282857D01*
X59290476Y104378095D01*
X59242857Y104568571D01*
X59242857Y104806666D01*
X59290476Y104997142D01*
X59338095Y105092380D01*
X59385714Y105140000D01*
X59480952Y105187619D01*
%TO.C,SW1x1*%
X74585714Y104235238D02*
X74728571Y104187619D01*
X74966666Y104187619D01*
X75061904Y104235238D01*
X75109523Y104282857D01*
X75157142Y104378095D01*
X75157142Y104473333D01*
X75109523Y104568571D01*
X75061904Y104616190D01*
X74966666Y104663809D01*
X74776190Y104711428D01*
X74680952Y104759047D01*
X74633333Y104806666D01*
X74585714Y104901904D01*
X74585714Y104997142D01*
X74633333Y105092380D01*
X74680952Y105140000D01*
X74776190Y105187619D01*
X75014285Y105187619D01*
X75157142Y105140000D01*
X75490476Y105187619D02*
X75728571Y104187619D01*
X75919047Y104901904D01*
X76109523Y104187619D01*
X76347619Y105187619D01*
X77252380Y104187619D02*
X76680952Y104187619D01*
X76966666Y104187619D02*
X76966666Y105187619D01*
X76871428Y105044761D01*
X76776190Y104949523D01*
X76680952Y104901904D01*
X77585714Y104187619D02*
X78109523Y104854285D01*
X77585714Y104854285D02*
X78109523Y104187619D01*
X79014285Y104187619D02*
X78442857Y104187619D01*
X78728571Y104187619D02*
X78728571Y105187619D01*
X78633333Y105044761D01*
X78538095Y104949523D01*
X78442857Y104901904D01*
%TO.C,SW1x2*%
X93785714Y106235238D02*
X93928571Y106187619D01*
X94166666Y106187619D01*
X94261904Y106235238D01*
X94309523Y106282857D01*
X94357142Y106378095D01*
X94357142Y106473333D01*
X94309523Y106568571D01*
X94261904Y106616190D01*
X94166666Y106663809D01*
X93976190Y106711428D01*
X93880952Y106759047D01*
X93833333Y106806666D01*
X93785714Y106901904D01*
X93785714Y106997142D01*
X93833333Y107092380D01*
X93880952Y107140000D01*
X93976190Y107187619D01*
X94214285Y107187619D01*
X94357142Y107140000D01*
X94690476Y107187619D02*
X94928571Y106187619D01*
X95119047Y106901904D01*
X95309523Y106187619D01*
X95547619Y107187619D01*
X96452380Y106187619D02*
X95880952Y106187619D01*
X96166666Y106187619D02*
X96166666Y107187619D01*
X96071428Y107044761D01*
X95976190Y106949523D01*
X95880952Y106901904D01*
X96785714Y106187619D02*
X97309523Y106854285D01*
X96785714Y106854285D02*
X97309523Y106187619D01*
X97642857Y107092380D02*
X97690476Y107140000D01*
X97785714Y107187619D01*
X98023809Y107187619D01*
X98119047Y107140000D01*
X98166666Y107092380D01*
X98214285Y106997142D01*
X98214285Y106901904D01*
X98166666Y106759047D01*
X97595238Y106187619D01*
X98214285Y106187619D01*
%TO.C,SW1x3*%
X112985714Y108235238D02*
X113128571Y108187619D01*
X113366666Y108187619D01*
X113461904Y108235238D01*
X113509523Y108282857D01*
X113557142Y108378095D01*
X113557142Y108473333D01*
X113509523Y108568571D01*
X113461904Y108616190D01*
X113366666Y108663809D01*
X113176190Y108711428D01*
X113080952Y108759047D01*
X113033333Y108806666D01*
X112985714Y108901904D01*
X112985714Y108997142D01*
X113033333Y109092380D01*
X113080952Y109140000D01*
X113176190Y109187619D01*
X113414285Y109187619D01*
X113557142Y109140000D01*
X113890476Y109187619D02*
X114128571Y108187619D01*
X114319047Y108901904D01*
X114509523Y108187619D01*
X114747619Y109187619D01*
X115652380Y108187619D02*
X115080952Y108187619D01*
X115366666Y108187619D02*
X115366666Y109187619D01*
X115271428Y109044761D01*
X115176190Y108949523D01*
X115080952Y108901904D01*
X115985714Y108187619D02*
X116509523Y108854285D01*
X115985714Y108854285D02*
X116509523Y108187619D01*
X116795238Y109187619D02*
X117414285Y109187619D01*
X117080952Y108806666D01*
X117223809Y108806666D01*
X117319047Y108759047D01*
X117366666Y108711428D01*
X117414285Y108616190D01*
X117414285Y108378095D01*
X117366666Y108282857D01*
X117319047Y108235238D01*
X117223809Y108187619D01*
X116938095Y108187619D01*
X116842857Y108235238D01*
X116795238Y108282857D01*
%TO.C,SW1x4*%
X132185714Y106235238D02*
X132328571Y106187619D01*
X132566666Y106187619D01*
X132661904Y106235238D01*
X132709523Y106282857D01*
X132757142Y106378095D01*
X132757142Y106473333D01*
X132709523Y106568571D01*
X132661904Y106616190D01*
X132566666Y106663809D01*
X132376190Y106711428D01*
X132280952Y106759047D01*
X132233333Y106806666D01*
X132185714Y106901904D01*
X132185714Y106997142D01*
X132233333Y107092380D01*
X132280952Y107140000D01*
X132376190Y107187619D01*
X132614285Y107187619D01*
X132757142Y107140000D01*
X133090476Y107187619D02*
X133328571Y106187619D01*
X133519047Y106901904D01*
X133709523Y106187619D01*
X133947619Y107187619D01*
X134852380Y106187619D02*
X134280952Y106187619D01*
X134566666Y106187619D02*
X134566666Y107187619D01*
X134471428Y107044761D01*
X134376190Y106949523D01*
X134280952Y106901904D01*
X135185714Y106187619D02*
X135709523Y106854285D01*
X135185714Y106854285D02*
X135709523Y106187619D01*
X136519047Y106854285D02*
X136519047Y106187619D01*
X136280952Y107235238D02*
X136042857Y106520952D01*
X136661904Y106520952D01*
%TO.C,SW1x5*%
X151385714Y104235238D02*
X151528571Y104187619D01*
X151766666Y104187619D01*
X151861904Y104235238D01*
X151909523Y104282857D01*
X151957142Y104378095D01*
X151957142Y104473333D01*
X151909523Y104568571D01*
X151861904Y104616190D01*
X151766666Y104663809D01*
X151576190Y104711428D01*
X151480952Y104759047D01*
X151433333Y104806666D01*
X151385714Y104901904D01*
X151385714Y104997142D01*
X151433333Y105092380D01*
X151480952Y105140000D01*
X151576190Y105187619D01*
X151814285Y105187619D01*
X151957142Y105140000D01*
X152290476Y105187619D02*
X152528571Y104187619D01*
X152719047Y104901904D01*
X152909523Y104187619D01*
X153147619Y105187619D01*
X154052380Y104187619D02*
X153480952Y104187619D01*
X153766666Y104187619D02*
X153766666Y105187619D01*
X153671428Y105044761D01*
X153576190Y104949523D01*
X153480952Y104901904D01*
X154385714Y104187619D02*
X154909523Y104854285D01*
X154385714Y104854285D02*
X154909523Y104187619D01*
X155766666Y105187619D02*
X155290476Y105187619D01*
X155242857Y104711428D01*
X155290476Y104759047D01*
X155385714Y104806666D01*
X155623809Y104806666D01*
X155719047Y104759047D01*
X155766666Y104711428D01*
X155814285Y104616190D01*
X155814285Y104378095D01*
X155766666Y104282857D01*
X155719047Y104235238D01*
X155623809Y104187619D01*
X155385714Y104187619D01*
X155290476Y104235238D01*
X155242857Y104282857D01*
%TO.C,SW2x0*%
X55385714Y85035238D02*
X55528571Y84987619D01*
X55766666Y84987619D01*
X55861904Y85035238D01*
X55909523Y85082857D01*
X55957142Y85178095D01*
X55957142Y85273333D01*
X55909523Y85368571D01*
X55861904Y85416190D01*
X55766666Y85463809D01*
X55576190Y85511428D01*
X55480952Y85559047D01*
X55433333Y85606666D01*
X55385714Y85701904D01*
X55385714Y85797142D01*
X55433333Y85892380D01*
X55480952Y85940000D01*
X55576190Y85987619D01*
X55814285Y85987619D01*
X55957142Y85940000D01*
X56290476Y85987619D02*
X56528571Y84987619D01*
X56719047Y85701904D01*
X56909523Y84987619D01*
X57147619Y85987619D01*
X57480952Y85892380D02*
X57528571Y85940000D01*
X57623809Y85987619D01*
X57861904Y85987619D01*
X57957142Y85940000D01*
X58004761Y85892380D01*
X58052380Y85797142D01*
X58052380Y85701904D01*
X58004761Y85559047D01*
X57433333Y84987619D01*
X58052380Y84987619D01*
X58385714Y84987619D02*
X58909523Y85654285D01*
X58385714Y85654285D02*
X58909523Y84987619D01*
X59480952Y85987619D02*
X59576190Y85987619D01*
X59671428Y85940000D01*
X59719047Y85892380D01*
X59766666Y85797142D01*
X59814285Y85606666D01*
X59814285Y85368571D01*
X59766666Y85178095D01*
X59719047Y85082857D01*
X59671428Y85035238D01*
X59576190Y84987619D01*
X59480952Y84987619D01*
X59385714Y85035238D01*
X59338095Y85082857D01*
X59290476Y85178095D01*
X59242857Y85368571D01*
X59242857Y85606666D01*
X59290476Y85797142D01*
X59338095Y85892380D01*
X59385714Y85940000D01*
X59480952Y85987619D01*
%TO.C,SW2x1*%
X74585714Y85035238D02*
X74728571Y84987619D01*
X74966666Y84987619D01*
X75061904Y85035238D01*
X75109523Y85082857D01*
X75157142Y85178095D01*
X75157142Y85273333D01*
X75109523Y85368571D01*
X75061904Y85416190D01*
X74966666Y85463809D01*
X74776190Y85511428D01*
X74680952Y85559047D01*
X74633333Y85606666D01*
X74585714Y85701904D01*
X74585714Y85797142D01*
X74633333Y85892380D01*
X74680952Y85940000D01*
X74776190Y85987619D01*
X75014285Y85987619D01*
X75157142Y85940000D01*
X75490476Y85987619D02*
X75728571Y84987619D01*
X75919047Y85701904D01*
X76109523Y84987619D01*
X76347619Y85987619D01*
X76680952Y85892380D02*
X76728571Y85940000D01*
X76823809Y85987619D01*
X77061904Y85987619D01*
X77157142Y85940000D01*
X77204761Y85892380D01*
X77252380Y85797142D01*
X77252380Y85701904D01*
X77204761Y85559047D01*
X76633333Y84987619D01*
X77252380Y84987619D01*
X77585714Y84987619D02*
X78109523Y85654285D01*
X77585714Y85654285D02*
X78109523Y84987619D01*
X79014285Y84987619D02*
X78442857Y84987619D01*
X78728571Y84987619D02*
X78728571Y85987619D01*
X78633333Y85844761D01*
X78538095Y85749523D01*
X78442857Y85701904D01*
%TO.C,SW2x2*%
X93785714Y87035238D02*
X93928571Y86987619D01*
X94166666Y86987619D01*
X94261904Y87035238D01*
X94309523Y87082857D01*
X94357142Y87178095D01*
X94357142Y87273333D01*
X94309523Y87368571D01*
X94261904Y87416190D01*
X94166666Y87463809D01*
X93976190Y87511428D01*
X93880952Y87559047D01*
X93833333Y87606666D01*
X93785714Y87701904D01*
X93785714Y87797142D01*
X93833333Y87892380D01*
X93880952Y87940000D01*
X93976190Y87987619D01*
X94214285Y87987619D01*
X94357142Y87940000D01*
X94690476Y87987619D02*
X94928571Y86987619D01*
X95119047Y87701904D01*
X95309523Y86987619D01*
X95547619Y87987619D01*
X95880952Y87892380D02*
X95928571Y87940000D01*
X96023809Y87987619D01*
X96261904Y87987619D01*
X96357142Y87940000D01*
X96404761Y87892380D01*
X96452380Y87797142D01*
X96452380Y87701904D01*
X96404761Y87559047D01*
X95833333Y86987619D01*
X96452380Y86987619D01*
X96785714Y86987619D02*
X97309523Y87654285D01*
X96785714Y87654285D02*
X97309523Y86987619D01*
X97642857Y87892380D02*
X97690476Y87940000D01*
X97785714Y87987619D01*
X98023809Y87987619D01*
X98119047Y87940000D01*
X98166666Y87892380D01*
X98214285Y87797142D01*
X98214285Y87701904D01*
X98166666Y87559047D01*
X97595238Y86987619D01*
X98214285Y86987619D01*
%TO.C,SW2x3*%
X112985714Y89035238D02*
X113128571Y88987619D01*
X113366666Y88987619D01*
X113461904Y89035238D01*
X113509523Y89082857D01*
X113557142Y89178095D01*
X113557142Y89273333D01*
X113509523Y89368571D01*
X113461904Y89416190D01*
X113366666Y89463809D01*
X113176190Y89511428D01*
X113080952Y89559047D01*
X113033333Y89606666D01*
X112985714Y89701904D01*
X112985714Y89797142D01*
X113033333Y89892380D01*
X113080952Y89940000D01*
X113176190Y89987619D01*
X113414285Y89987619D01*
X113557142Y89940000D01*
X113890476Y89987619D02*
X114128571Y88987619D01*
X114319047Y89701904D01*
X114509523Y88987619D01*
X114747619Y89987619D01*
X115080952Y89892380D02*
X115128571Y89940000D01*
X115223809Y89987619D01*
X115461904Y89987619D01*
X115557142Y89940000D01*
X115604761Y89892380D01*
X115652380Y89797142D01*
X115652380Y89701904D01*
X115604761Y89559047D01*
X115033333Y88987619D01*
X115652380Y88987619D01*
X115985714Y88987619D02*
X116509523Y89654285D01*
X115985714Y89654285D02*
X116509523Y88987619D01*
X116795238Y89987619D02*
X117414285Y89987619D01*
X117080952Y89606666D01*
X117223809Y89606666D01*
X117319047Y89559047D01*
X117366666Y89511428D01*
X117414285Y89416190D01*
X117414285Y89178095D01*
X117366666Y89082857D01*
X117319047Y89035238D01*
X117223809Y88987619D01*
X116938095Y88987619D01*
X116842857Y89035238D01*
X116795238Y89082857D01*
%TO.C,SW2x4*%
X132185714Y87035238D02*
X132328571Y86987619D01*
X132566666Y86987619D01*
X132661904Y87035238D01*
X132709523Y87082857D01*
X132757142Y87178095D01*
X132757142Y87273333D01*
X132709523Y87368571D01*
X132661904Y87416190D01*
X132566666Y87463809D01*
X132376190Y87511428D01*
X132280952Y87559047D01*
X132233333Y87606666D01*
X132185714Y87701904D01*
X132185714Y87797142D01*
X132233333Y87892380D01*
X132280952Y87940000D01*
X132376190Y87987619D01*
X132614285Y87987619D01*
X132757142Y87940000D01*
X133090476Y87987619D02*
X133328571Y86987619D01*
X133519047Y87701904D01*
X133709523Y86987619D01*
X133947619Y87987619D01*
X134280952Y87892380D02*
X134328571Y87940000D01*
X134423809Y87987619D01*
X134661904Y87987619D01*
X134757142Y87940000D01*
X134804761Y87892380D01*
X134852380Y87797142D01*
X134852380Y87701904D01*
X134804761Y87559047D01*
X134233333Y86987619D01*
X134852380Y86987619D01*
X135185714Y86987619D02*
X135709523Y87654285D01*
X135185714Y87654285D02*
X135709523Y86987619D01*
X136519047Y87654285D02*
X136519047Y86987619D01*
X136280952Y88035238D02*
X136042857Y87320952D01*
X136661904Y87320952D01*
%TO.C,SW2x5*%
X151385714Y85035238D02*
X151528571Y84987619D01*
X151766666Y84987619D01*
X151861904Y85035238D01*
X151909523Y85082857D01*
X151957142Y85178095D01*
X151957142Y85273333D01*
X151909523Y85368571D01*
X151861904Y85416190D01*
X151766666Y85463809D01*
X151576190Y85511428D01*
X151480952Y85559047D01*
X151433333Y85606666D01*
X151385714Y85701904D01*
X151385714Y85797142D01*
X151433333Y85892380D01*
X151480952Y85940000D01*
X151576190Y85987619D01*
X151814285Y85987619D01*
X151957142Y85940000D01*
X152290476Y85987619D02*
X152528571Y84987619D01*
X152719047Y85701904D01*
X152909523Y84987619D01*
X153147619Y85987619D01*
X153480952Y85892380D02*
X153528571Y85940000D01*
X153623809Y85987619D01*
X153861904Y85987619D01*
X153957142Y85940000D01*
X154004761Y85892380D01*
X154052380Y85797142D01*
X154052380Y85701904D01*
X154004761Y85559047D01*
X153433333Y84987619D01*
X154052380Y84987619D01*
X154385714Y84987619D02*
X154909523Y85654285D01*
X154385714Y85654285D02*
X154909523Y84987619D01*
X155766666Y85987619D02*
X155290476Y85987619D01*
X155242857Y85511428D01*
X155290476Y85559047D01*
X155385714Y85606666D01*
X155623809Y85606666D01*
X155719047Y85559047D01*
X155766666Y85511428D01*
X155814285Y85416190D01*
X155814285Y85178095D01*
X155766666Y85082857D01*
X155719047Y85035238D01*
X155623809Y84987619D01*
X155385714Y84987619D01*
X155290476Y85035238D01*
X155242857Y85082857D01*
%TO.C,SW3x0*%
X55385714Y65835238D02*
X55528571Y65787619D01*
X55766666Y65787619D01*
X55861904Y65835238D01*
X55909523Y65882857D01*
X55957142Y65978095D01*
X55957142Y66073333D01*
X55909523Y66168571D01*
X55861904Y66216190D01*
X55766666Y66263809D01*
X55576190Y66311428D01*
X55480952Y66359047D01*
X55433333Y66406666D01*
X55385714Y66501904D01*
X55385714Y66597142D01*
X55433333Y66692380D01*
X55480952Y66740000D01*
X55576190Y66787619D01*
X55814285Y66787619D01*
X55957142Y66740000D01*
X56290476Y66787619D02*
X56528571Y65787619D01*
X56719047Y66501904D01*
X56909523Y65787619D01*
X57147619Y66787619D01*
X57433333Y66787619D02*
X58052380Y66787619D01*
X57719047Y66406666D01*
X57861904Y66406666D01*
X57957142Y66359047D01*
X58004761Y66311428D01*
X58052380Y66216190D01*
X58052380Y65978095D01*
X58004761Y65882857D01*
X57957142Y65835238D01*
X57861904Y65787619D01*
X57576190Y65787619D01*
X57480952Y65835238D01*
X57433333Y65882857D01*
X58385714Y65787619D02*
X58909523Y66454285D01*
X58385714Y66454285D02*
X58909523Y65787619D01*
X59480952Y66787619D02*
X59576190Y66787619D01*
X59671428Y66740000D01*
X59719047Y66692380D01*
X59766666Y66597142D01*
X59814285Y66406666D01*
X59814285Y66168571D01*
X59766666Y65978095D01*
X59719047Y65882857D01*
X59671428Y65835238D01*
X59576190Y65787619D01*
X59480952Y65787619D01*
X59385714Y65835238D01*
X59338095Y65882857D01*
X59290476Y65978095D01*
X59242857Y66168571D01*
X59242857Y66406666D01*
X59290476Y66597142D01*
X59338095Y66692380D01*
X59385714Y66740000D01*
X59480952Y66787619D01*
%TO.C,SW3x1*%
X74585714Y65835238D02*
X74728571Y65787619D01*
X74966666Y65787619D01*
X75061904Y65835238D01*
X75109523Y65882857D01*
X75157142Y65978095D01*
X75157142Y66073333D01*
X75109523Y66168571D01*
X75061904Y66216190D01*
X74966666Y66263809D01*
X74776190Y66311428D01*
X74680952Y66359047D01*
X74633333Y66406666D01*
X74585714Y66501904D01*
X74585714Y66597142D01*
X74633333Y66692380D01*
X74680952Y66740000D01*
X74776190Y66787619D01*
X75014285Y66787619D01*
X75157142Y66740000D01*
X75490476Y66787619D02*
X75728571Y65787619D01*
X75919047Y66501904D01*
X76109523Y65787619D01*
X76347619Y66787619D01*
X76633333Y66787619D02*
X77252380Y66787619D01*
X76919047Y66406666D01*
X77061904Y66406666D01*
X77157142Y66359047D01*
X77204761Y66311428D01*
X77252380Y66216190D01*
X77252380Y65978095D01*
X77204761Y65882857D01*
X77157142Y65835238D01*
X77061904Y65787619D01*
X76776190Y65787619D01*
X76680952Y65835238D01*
X76633333Y65882857D01*
X77585714Y65787619D02*
X78109523Y66454285D01*
X77585714Y66454285D02*
X78109523Y65787619D01*
X79014285Y65787619D02*
X78442857Y65787619D01*
X78728571Y65787619D02*
X78728571Y66787619D01*
X78633333Y66644761D01*
X78538095Y66549523D01*
X78442857Y66501904D01*
%TO.C,SW3x2*%
X93785714Y67835238D02*
X93928571Y67787619D01*
X94166666Y67787619D01*
X94261904Y67835238D01*
X94309523Y67882857D01*
X94357142Y67978095D01*
X94357142Y68073333D01*
X94309523Y68168571D01*
X94261904Y68216190D01*
X94166666Y68263809D01*
X93976190Y68311428D01*
X93880952Y68359047D01*
X93833333Y68406666D01*
X93785714Y68501904D01*
X93785714Y68597142D01*
X93833333Y68692380D01*
X93880952Y68740000D01*
X93976190Y68787619D01*
X94214285Y68787619D01*
X94357142Y68740000D01*
X94690476Y68787619D02*
X94928571Y67787619D01*
X95119047Y68501904D01*
X95309523Y67787619D01*
X95547619Y68787619D01*
X95833333Y68787619D02*
X96452380Y68787619D01*
X96119047Y68406666D01*
X96261904Y68406666D01*
X96357142Y68359047D01*
X96404761Y68311428D01*
X96452380Y68216190D01*
X96452380Y67978095D01*
X96404761Y67882857D01*
X96357142Y67835238D01*
X96261904Y67787619D01*
X95976190Y67787619D01*
X95880952Y67835238D01*
X95833333Y67882857D01*
X96785714Y67787619D02*
X97309523Y68454285D01*
X96785714Y68454285D02*
X97309523Y67787619D01*
X97642857Y68692380D02*
X97690476Y68740000D01*
X97785714Y68787619D01*
X98023809Y68787619D01*
X98119047Y68740000D01*
X98166666Y68692380D01*
X98214285Y68597142D01*
X98214285Y68501904D01*
X98166666Y68359047D01*
X97595238Y67787619D01*
X98214285Y67787619D01*
%TO.C,SW3x3*%
X112985714Y69835238D02*
X113128571Y69787619D01*
X113366666Y69787619D01*
X113461904Y69835238D01*
X113509523Y69882857D01*
X113557142Y69978095D01*
X113557142Y70073333D01*
X113509523Y70168571D01*
X113461904Y70216190D01*
X113366666Y70263809D01*
X113176190Y70311428D01*
X113080952Y70359047D01*
X113033333Y70406666D01*
X112985714Y70501904D01*
X112985714Y70597142D01*
X113033333Y70692380D01*
X113080952Y70740000D01*
X113176190Y70787619D01*
X113414285Y70787619D01*
X113557142Y70740000D01*
X113890476Y70787619D02*
X114128571Y69787619D01*
X114319047Y70501904D01*
X114509523Y69787619D01*
X114747619Y70787619D01*
X115033333Y70787619D02*
X115652380Y70787619D01*
X115319047Y70406666D01*
X115461904Y70406666D01*
X115557142Y70359047D01*
X115604761Y70311428D01*
X115652380Y70216190D01*
X115652380Y69978095D01*
X115604761Y69882857D01*
X115557142Y69835238D01*
X115461904Y69787619D01*
X115176190Y69787619D01*
X115080952Y69835238D01*
X115033333Y69882857D01*
X115985714Y69787619D02*
X116509523Y70454285D01*
X115985714Y70454285D02*
X116509523Y69787619D01*
X116795238Y70787619D02*
X117414285Y70787619D01*
X117080952Y70406666D01*
X117223809Y70406666D01*
X117319047Y70359047D01*
X117366666Y70311428D01*
X117414285Y70216190D01*
X117414285Y69978095D01*
X117366666Y69882857D01*
X117319047Y69835238D01*
X117223809Y69787619D01*
X116938095Y69787619D01*
X116842857Y69835238D01*
X116795238Y69882857D01*
%TO.C,SW3x4*%
X132185714Y67835238D02*
X132328571Y67787619D01*
X132566666Y67787619D01*
X132661904Y67835238D01*
X132709523Y67882857D01*
X132757142Y67978095D01*
X132757142Y68073333D01*
X132709523Y68168571D01*
X132661904Y68216190D01*
X132566666Y68263809D01*
X132376190Y68311428D01*
X132280952Y68359047D01*
X132233333Y68406666D01*
X132185714Y68501904D01*
X132185714Y68597142D01*
X132233333Y68692380D01*
X132280952Y68740000D01*
X132376190Y68787619D01*
X132614285Y68787619D01*
X132757142Y68740000D01*
X133090476Y68787619D02*
X133328571Y67787619D01*
X133519047Y68501904D01*
X133709523Y67787619D01*
X133947619Y68787619D01*
X134233333Y68787619D02*
X134852380Y68787619D01*
X134519047Y68406666D01*
X134661904Y68406666D01*
X134757142Y68359047D01*
X134804761Y68311428D01*
X134852380Y68216190D01*
X134852380Y67978095D01*
X134804761Y67882857D01*
X134757142Y67835238D01*
X134661904Y67787619D01*
X134376190Y67787619D01*
X134280952Y67835238D01*
X134233333Y67882857D01*
X135185714Y67787619D02*
X135709523Y68454285D01*
X135185714Y68454285D02*
X135709523Y67787619D01*
X136519047Y68454285D02*
X136519047Y67787619D01*
X136280952Y68835238D02*
X136042857Y68120952D01*
X136661904Y68120952D01*
%TO.C,SW3x5*%
X151385714Y65835238D02*
X151528571Y65787619D01*
X151766666Y65787619D01*
X151861904Y65835238D01*
X151909523Y65882857D01*
X151957142Y65978095D01*
X151957142Y66073333D01*
X151909523Y66168571D01*
X151861904Y66216190D01*
X151766666Y66263809D01*
X151576190Y66311428D01*
X151480952Y66359047D01*
X151433333Y66406666D01*
X151385714Y66501904D01*
X151385714Y66597142D01*
X151433333Y66692380D01*
X151480952Y66740000D01*
X151576190Y66787619D01*
X151814285Y66787619D01*
X151957142Y66740000D01*
X152290476Y66787619D02*
X152528571Y65787619D01*
X152719047Y66501904D01*
X152909523Y65787619D01*
X153147619Y66787619D01*
X153433333Y66787619D02*
X154052380Y66787619D01*
X153719047Y66406666D01*
X153861904Y66406666D01*
X153957142Y66359047D01*
X154004761Y66311428D01*
X154052380Y66216190D01*
X154052380Y65978095D01*
X154004761Y65882857D01*
X153957142Y65835238D01*
X153861904Y65787619D01*
X153576190Y65787619D01*
X153480952Y65835238D01*
X153433333Y65882857D01*
X154385714Y65787619D02*
X154909523Y66454285D01*
X154385714Y66454285D02*
X154909523Y65787619D01*
X155766666Y66787619D02*
X155290476Y66787619D01*
X155242857Y66311428D01*
X155290476Y66359047D01*
X155385714Y66406666D01*
X155623809Y66406666D01*
X155719047Y66359047D01*
X155766666Y66311428D01*
X155814285Y66216190D01*
X155814285Y65978095D01*
X155766666Y65882857D01*
X155719047Y65835238D01*
X155623809Y65787619D01*
X155385714Y65787619D01*
X155290476Y65835238D01*
X155242857Y65882857D01*
%TO.C,SW3x6*%
X170585714Y56235238D02*
X170728571Y56187619D01*
X170966666Y56187619D01*
X171061904Y56235238D01*
X171109523Y56282857D01*
X171157142Y56378095D01*
X171157142Y56473333D01*
X171109523Y56568571D01*
X171061904Y56616190D01*
X170966666Y56663809D01*
X170776190Y56711428D01*
X170680952Y56759047D01*
X170633333Y56806666D01*
X170585714Y56901904D01*
X170585714Y56997142D01*
X170633333Y57092380D01*
X170680952Y57140000D01*
X170776190Y57187619D01*
X171014285Y57187619D01*
X171157142Y57140000D01*
X171490476Y57187619D02*
X171728571Y56187619D01*
X171919047Y56901904D01*
X172109523Y56187619D01*
X172347619Y57187619D01*
X172633333Y57187619D02*
X173252380Y57187619D01*
X172919047Y56806666D01*
X173061904Y56806666D01*
X173157142Y56759047D01*
X173204761Y56711428D01*
X173252380Y56616190D01*
X173252380Y56378095D01*
X173204761Y56282857D01*
X173157142Y56235238D01*
X173061904Y56187619D01*
X172776190Y56187619D01*
X172680952Y56235238D01*
X172633333Y56282857D01*
X173585714Y56187619D02*
X174109523Y56854285D01*
X173585714Y56854285D02*
X174109523Y56187619D01*
X174919047Y57187619D02*
X174728571Y57187619D01*
X174633333Y57140000D01*
X174585714Y57092380D01*
X174490476Y56949523D01*
X174442857Y56759047D01*
X174442857Y56378095D01*
X174490476Y56282857D01*
X174538095Y56235238D01*
X174633333Y56187619D01*
X174823809Y56187619D01*
X174919047Y56235238D01*
X174966666Y56282857D01*
X175014285Y56378095D01*
X175014285Y56616190D01*
X174966666Y56711428D01*
X174919047Y56759047D01*
X174823809Y56806666D01*
X174633333Y56806666D01*
X174538095Y56759047D01*
X174490476Y56711428D01*
X174442857Y56616190D01*
%TO.C,SW4x0*%
X55385714Y46635238D02*
X55528571Y46587619D01*
X55766666Y46587619D01*
X55861904Y46635238D01*
X55909523Y46682857D01*
X55957142Y46778095D01*
X55957142Y46873333D01*
X55909523Y46968571D01*
X55861904Y47016190D01*
X55766666Y47063809D01*
X55576190Y47111428D01*
X55480952Y47159047D01*
X55433333Y47206666D01*
X55385714Y47301904D01*
X55385714Y47397142D01*
X55433333Y47492380D01*
X55480952Y47540000D01*
X55576190Y47587619D01*
X55814285Y47587619D01*
X55957142Y47540000D01*
X56290476Y47587619D02*
X56528571Y46587619D01*
X56719047Y47301904D01*
X56909523Y46587619D01*
X57147619Y47587619D01*
X57957142Y47254285D02*
X57957142Y46587619D01*
X57719047Y47635238D02*
X57480952Y46920952D01*
X58100000Y46920952D01*
X58385714Y46587619D02*
X58909523Y47254285D01*
X58385714Y47254285D02*
X58909523Y46587619D01*
X59480952Y47587619D02*
X59576190Y47587619D01*
X59671428Y47540000D01*
X59719047Y47492380D01*
X59766666Y47397142D01*
X59814285Y47206666D01*
X59814285Y46968571D01*
X59766666Y46778095D01*
X59719047Y46682857D01*
X59671428Y46635238D01*
X59576190Y46587619D01*
X59480952Y46587619D01*
X59385714Y46635238D01*
X59338095Y46682857D01*
X59290476Y46778095D01*
X59242857Y46968571D01*
X59242857Y47206666D01*
X59290476Y47397142D01*
X59338095Y47492380D01*
X59385714Y47540000D01*
X59480952Y47587619D01*
%TO.C,SW4x1*%
X74585714Y46635238D02*
X74728571Y46587619D01*
X74966666Y46587619D01*
X75061904Y46635238D01*
X75109523Y46682857D01*
X75157142Y46778095D01*
X75157142Y46873333D01*
X75109523Y46968571D01*
X75061904Y47016190D01*
X74966666Y47063809D01*
X74776190Y47111428D01*
X74680952Y47159047D01*
X74633333Y47206666D01*
X74585714Y47301904D01*
X74585714Y47397142D01*
X74633333Y47492380D01*
X74680952Y47540000D01*
X74776190Y47587619D01*
X75014285Y47587619D01*
X75157142Y47540000D01*
X75490476Y47587619D02*
X75728571Y46587619D01*
X75919047Y47301904D01*
X76109523Y46587619D01*
X76347619Y47587619D01*
X77157142Y47254285D02*
X77157142Y46587619D01*
X76919047Y47635238D02*
X76680952Y46920952D01*
X77300000Y46920952D01*
X77585714Y46587619D02*
X78109523Y47254285D01*
X77585714Y47254285D02*
X78109523Y46587619D01*
X79014285Y46587619D02*
X78442857Y46587619D01*
X78728571Y46587619D02*
X78728571Y47587619D01*
X78633333Y47444761D01*
X78538095Y47349523D01*
X78442857Y47301904D01*
%TO.C,SW4x2*%
X93785714Y48635238D02*
X93928571Y48587619D01*
X94166666Y48587619D01*
X94261904Y48635238D01*
X94309523Y48682857D01*
X94357142Y48778095D01*
X94357142Y48873333D01*
X94309523Y48968571D01*
X94261904Y49016190D01*
X94166666Y49063809D01*
X93976190Y49111428D01*
X93880952Y49159047D01*
X93833333Y49206666D01*
X93785714Y49301904D01*
X93785714Y49397142D01*
X93833333Y49492380D01*
X93880952Y49540000D01*
X93976190Y49587619D01*
X94214285Y49587619D01*
X94357142Y49540000D01*
X94690476Y49587619D02*
X94928571Y48587619D01*
X95119047Y49301904D01*
X95309523Y48587619D01*
X95547619Y49587619D01*
X96357142Y49254285D02*
X96357142Y48587619D01*
X96119047Y49635238D02*
X95880952Y48920952D01*
X96500000Y48920952D01*
X96785714Y48587619D02*
X97309523Y49254285D01*
X96785714Y49254285D02*
X97309523Y48587619D01*
X97642857Y49492380D02*
X97690476Y49540000D01*
X97785714Y49587619D01*
X98023809Y49587619D01*
X98119047Y49540000D01*
X98166666Y49492380D01*
X98214285Y49397142D01*
X98214285Y49301904D01*
X98166666Y49159047D01*
X97595238Y48587619D01*
X98214285Y48587619D01*
%TO.C,SW4x3*%
X112985714Y50635238D02*
X113128571Y50587619D01*
X113366666Y50587619D01*
X113461904Y50635238D01*
X113509523Y50682857D01*
X113557142Y50778095D01*
X113557142Y50873333D01*
X113509523Y50968571D01*
X113461904Y51016190D01*
X113366666Y51063809D01*
X113176190Y51111428D01*
X113080952Y51159047D01*
X113033333Y51206666D01*
X112985714Y51301904D01*
X112985714Y51397142D01*
X113033333Y51492380D01*
X113080952Y51540000D01*
X113176190Y51587619D01*
X113414285Y51587619D01*
X113557142Y51540000D01*
X113890476Y51587619D02*
X114128571Y50587619D01*
X114319047Y51301904D01*
X114509523Y50587619D01*
X114747619Y51587619D01*
X115557142Y51254285D02*
X115557142Y50587619D01*
X115319047Y51635238D02*
X115080952Y50920952D01*
X115700000Y50920952D01*
X115985714Y50587619D02*
X116509523Y51254285D01*
X115985714Y51254285D02*
X116509523Y50587619D01*
X116795238Y51587619D02*
X117414285Y51587619D01*
X117080952Y51206666D01*
X117223809Y51206666D01*
X117319047Y51159047D01*
X117366666Y51111428D01*
X117414285Y51016190D01*
X117414285Y50778095D01*
X117366666Y50682857D01*
X117319047Y50635238D01*
X117223809Y50587619D01*
X116938095Y50587619D01*
X116842857Y50635238D01*
X116795238Y50682857D01*
%TO.C,SW4x4*%
X132185714Y48635238D02*
X132328571Y48587619D01*
X132566666Y48587619D01*
X132661904Y48635238D01*
X132709523Y48682857D01*
X132757142Y48778095D01*
X132757142Y48873333D01*
X132709523Y48968571D01*
X132661904Y49016190D01*
X132566666Y49063809D01*
X132376190Y49111428D01*
X132280952Y49159047D01*
X132233333Y49206666D01*
X132185714Y49301904D01*
X132185714Y49397142D01*
X132233333Y49492380D01*
X132280952Y49540000D01*
X132376190Y49587619D01*
X132614285Y49587619D01*
X132757142Y49540000D01*
X133090476Y49587619D02*
X133328571Y48587619D01*
X133519047Y49301904D01*
X133709523Y48587619D01*
X133947619Y49587619D01*
X134757142Y49254285D02*
X134757142Y48587619D01*
X134519047Y49635238D02*
X134280952Y48920952D01*
X134900000Y48920952D01*
X135185714Y48587619D02*
X135709523Y49254285D01*
X135185714Y49254285D02*
X135709523Y48587619D01*
X136519047Y49254285D02*
X136519047Y48587619D01*
X136280952Y49635238D02*
X136042857Y48920952D01*
X136661904Y48920952D01*
%TO.C,SW4x5*%
X151385714Y46635238D02*
X151528571Y46587619D01*
X151766666Y46587619D01*
X151861904Y46635238D01*
X151909523Y46682857D01*
X151957142Y46778095D01*
X151957142Y46873333D01*
X151909523Y46968571D01*
X151861904Y47016190D01*
X151766666Y47063809D01*
X151576190Y47111428D01*
X151480952Y47159047D01*
X151433333Y47206666D01*
X151385714Y47301904D01*
X151385714Y47397142D01*
X151433333Y47492380D01*
X151480952Y47540000D01*
X151576190Y47587619D01*
X151814285Y47587619D01*
X151957142Y47540000D01*
X152290476Y47587619D02*
X152528571Y46587619D01*
X152719047Y47301904D01*
X152909523Y46587619D01*
X153147619Y47587619D01*
X153957142Y47254285D02*
X153957142Y46587619D01*
X153719047Y47635238D02*
X153480952Y46920952D01*
X154100000Y46920952D01*
X154385714Y46587619D02*
X154909523Y47254285D01*
X154385714Y47254285D02*
X154909523Y46587619D01*
X155766666Y47587619D02*
X155290476Y47587619D01*
X155242857Y47111428D01*
X155290476Y47159047D01*
X155385714Y47206666D01*
X155623809Y47206666D01*
X155719047Y47159047D01*
X155766666Y47111428D01*
X155814285Y47016190D01*
X155814285Y46778095D01*
X155766666Y46682857D01*
X155719047Y46635238D01*
X155623809Y46587619D01*
X155385714Y46587619D01*
X155290476Y46635238D01*
X155242857Y46682857D01*
%TO.C,SW5x0*%
X55385714Y27435238D02*
X55528571Y27387619D01*
X55766666Y27387619D01*
X55861904Y27435238D01*
X55909523Y27482857D01*
X55957142Y27578095D01*
X55957142Y27673333D01*
X55909523Y27768571D01*
X55861904Y27816190D01*
X55766666Y27863809D01*
X55576190Y27911428D01*
X55480952Y27959047D01*
X55433333Y28006666D01*
X55385714Y28101904D01*
X55385714Y28197142D01*
X55433333Y28292380D01*
X55480952Y28340000D01*
X55576190Y28387619D01*
X55814285Y28387619D01*
X55957142Y28340000D01*
X56290476Y28387619D02*
X56528571Y27387619D01*
X56719047Y28101904D01*
X56909523Y27387619D01*
X57147619Y28387619D01*
X58004761Y28387619D02*
X57528571Y28387619D01*
X57480952Y27911428D01*
X57528571Y27959047D01*
X57623809Y28006666D01*
X57861904Y28006666D01*
X57957142Y27959047D01*
X58004761Y27911428D01*
X58052380Y27816190D01*
X58052380Y27578095D01*
X58004761Y27482857D01*
X57957142Y27435238D01*
X57861904Y27387619D01*
X57623809Y27387619D01*
X57528571Y27435238D01*
X57480952Y27482857D01*
X58385714Y27387619D02*
X58909523Y28054285D01*
X58385714Y28054285D02*
X58909523Y27387619D01*
X59480952Y28387619D02*
X59576190Y28387619D01*
X59671428Y28340000D01*
X59719047Y28292380D01*
X59766666Y28197142D01*
X59814285Y28006666D01*
X59814285Y27768571D01*
X59766666Y27578095D01*
X59719047Y27482857D01*
X59671428Y27435238D01*
X59576190Y27387619D01*
X59480952Y27387619D01*
X59385714Y27435238D01*
X59338095Y27482857D01*
X59290476Y27578095D01*
X59242857Y27768571D01*
X59242857Y28006666D01*
X59290476Y28197142D01*
X59338095Y28292380D01*
X59385714Y28340000D01*
X59480952Y28387619D01*
%TO.C,SW5x1*%
X74585714Y27435238D02*
X74728571Y27387619D01*
X74966666Y27387619D01*
X75061904Y27435238D01*
X75109523Y27482857D01*
X75157142Y27578095D01*
X75157142Y27673333D01*
X75109523Y27768571D01*
X75061904Y27816190D01*
X74966666Y27863809D01*
X74776190Y27911428D01*
X74680952Y27959047D01*
X74633333Y28006666D01*
X74585714Y28101904D01*
X74585714Y28197142D01*
X74633333Y28292380D01*
X74680952Y28340000D01*
X74776190Y28387619D01*
X75014285Y28387619D01*
X75157142Y28340000D01*
X75490476Y28387619D02*
X75728571Y27387619D01*
X75919047Y28101904D01*
X76109523Y27387619D01*
X76347619Y28387619D01*
X77204761Y28387619D02*
X76728571Y28387619D01*
X76680952Y27911428D01*
X76728571Y27959047D01*
X76823809Y28006666D01*
X77061904Y28006666D01*
X77157142Y27959047D01*
X77204761Y27911428D01*
X77252380Y27816190D01*
X77252380Y27578095D01*
X77204761Y27482857D01*
X77157142Y27435238D01*
X77061904Y27387619D01*
X76823809Y27387619D01*
X76728571Y27435238D01*
X76680952Y27482857D01*
X77585714Y27387619D02*
X78109523Y28054285D01*
X77585714Y28054285D02*
X78109523Y27387619D01*
X79014285Y27387619D02*
X78442857Y27387619D01*
X78728571Y27387619D02*
X78728571Y28387619D01*
X78633333Y28244761D01*
X78538095Y28149523D01*
X78442857Y28101904D01*
%TO.C,SW5x2*%
X93785714Y27435238D02*
X93928571Y27387619D01*
X94166666Y27387619D01*
X94261904Y27435238D01*
X94309523Y27482857D01*
X94357142Y27578095D01*
X94357142Y27673333D01*
X94309523Y27768571D01*
X94261904Y27816190D01*
X94166666Y27863809D01*
X93976190Y27911428D01*
X93880952Y27959047D01*
X93833333Y28006666D01*
X93785714Y28101904D01*
X93785714Y28197142D01*
X93833333Y28292380D01*
X93880952Y28340000D01*
X93976190Y28387619D01*
X94214285Y28387619D01*
X94357142Y28340000D01*
X94690476Y28387619D02*
X94928571Y27387619D01*
X95119047Y28101904D01*
X95309523Y27387619D01*
X95547619Y28387619D01*
X96404761Y28387619D02*
X95928571Y28387619D01*
X95880952Y27911428D01*
X95928571Y27959047D01*
X96023809Y28006666D01*
X96261904Y28006666D01*
X96357142Y27959047D01*
X96404761Y27911428D01*
X96452380Y27816190D01*
X96452380Y27578095D01*
X96404761Y27482857D01*
X96357142Y27435238D01*
X96261904Y27387619D01*
X96023809Y27387619D01*
X95928571Y27435238D01*
X95880952Y27482857D01*
X96785714Y27387619D02*
X97309523Y28054285D01*
X96785714Y28054285D02*
X97309523Y27387619D01*
X97642857Y28292380D02*
X97690476Y28340000D01*
X97785714Y28387619D01*
X98023809Y28387619D01*
X98119047Y28340000D01*
X98166666Y28292380D01*
X98214285Y28197142D01*
X98214285Y28101904D01*
X98166666Y27959047D01*
X97595238Y27387619D01*
X98214285Y27387619D01*
%TO.C,SW5x4*%
X136985714Y27435238D02*
X137128571Y27387619D01*
X137366666Y27387619D01*
X137461904Y27435238D01*
X137509523Y27482857D01*
X137557142Y27578095D01*
X137557142Y27673333D01*
X137509523Y27768571D01*
X137461904Y27816190D01*
X137366666Y27863809D01*
X137176190Y27911428D01*
X137080952Y27959047D01*
X137033333Y28006666D01*
X136985714Y28101904D01*
X136985714Y28197142D01*
X137033333Y28292380D01*
X137080952Y28340000D01*
X137176190Y28387619D01*
X137414285Y28387619D01*
X137557142Y28340000D01*
X137890476Y28387619D02*
X138128571Y27387619D01*
X138319047Y28101904D01*
X138509523Y27387619D01*
X138747619Y28387619D01*
X139604761Y28387619D02*
X139128571Y28387619D01*
X139080952Y27911428D01*
X139128571Y27959047D01*
X139223809Y28006666D01*
X139461904Y28006666D01*
X139557142Y27959047D01*
X139604761Y27911428D01*
X139652380Y27816190D01*
X139652380Y27578095D01*
X139604761Y27482857D01*
X139557142Y27435238D01*
X139461904Y27387619D01*
X139223809Y27387619D01*
X139128571Y27435238D01*
X139080952Y27482857D01*
X139985714Y27387619D02*
X140509523Y28054285D01*
X139985714Y28054285D02*
X140509523Y27387619D01*
X141319047Y28054285D02*
X141319047Y27387619D01*
X141080952Y28435238D02*
X140842857Y27720952D01*
X141461904Y27720952D01*
%TO.C,SW5x6*%
X165785714Y27435238D02*
X165928571Y27387619D01*
X166166666Y27387619D01*
X166261904Y27435238D01*
X166309523Y27482857D01*
X166357142Y27578095D01*
X166357142Y27673333D01*
X166309523Y27768571D01*
X166261904Y27816190D01*
X166166666Y27863809D01*
X165976190Y27911428D01*
X165880952Y27959047D01*
X165833333Y28006666D01*
X165785714Y28101904D01*
X165785714Y28197142D01*
X165833333Y28292380D01*
X165880952Y28340000D01*
X165976190Y28387619D01*
X166214285Y28387619D01*
X166357142Y28340000D01*
X166690476Y28387619D02*
X166928571Y27387619D01*
X167119047Y28101904D01*
X167309523Y27387619D01*
X167547619Y28387619D01*
X168404761Y28387619D02*
X167928571Y28387619D01*
X167880952Y27911428D01*
X167928571Y27959047D01*
X168023809Y28006666D01*
X168261904Y28006666D01*
X168357142Y27959047D01*
X168404761Y27911428D01*
X168452380Y27816190D01*
X168452380Y27578095D01*
X168404761Y27482857D01*
X168357142Y27435238D01*
X168261904Y27387619D01*
X168023809Y27387619D01*
X167928571Y27435238D01*
X167880952Y27482857D01*
X168785714Y27387619D02*
X169309523Y28054285D01*
X168785714Y28054285D02*
X169309523Y27387619D01*
X170119047Y28387619D02*
X169928571Y28387619D01*
X169833333Y28340000D01*
X169785714Y28292380D01*
X169690476Y28149523D01*
X169642857Y27959047D01*
X169642857Y27578095D01*
X169690476Y27482857D01*
X169738095Y27435238D01*
X169833333Y27387619D01*
X170023809Y27387619D01*
X170119047Y27435238D01*
X170166666Y27482857D01*
X170214285Y27578095D01*
X170214285Y27816190D01*
X170166666Y27911428D01*
X170119047Y27959047D01*
X170023809Y28006666D01*
X169833333Y28006666D01*
X169738095Y27959047D01*
X169690476Y27911428D01*
X169642857Y27816190D01*
%TO.C,SW6x0*%
X55385714Y8235238D02*
X55528571Y8187619D01*
X55766666Y8187619D01*
X55861904Y8235238D01*
X55909523Y8282857D01*
X55957142Y8378095D01*
X55957142Y8473333D01*
X55909523Y8568571D01*
X55861904Y8616190D01*
X55766666Y8663809D01*
X55576190Y8711428D01*
X55480952Y8759047D01*
X55433333Y8806666D01*
X55385714Y8901904D01*
X55385714Y8997142D01*
X55433333Y9092380D01*
X55480952Y9140000D01*
X55576190Y9187619D01*
X55814285Y9187619D01*
X55957142Y9140000D01*
X56290476Y9187619D02*
X56528571Y8187619D01*
X56719047Y8901904D01*
X56909523Y8187619D01*
X57147619Y9187619D01*
X57957142Y9187619D02*
X57766666Y9187619D01*
X57671428Y9140000D01*
X57623809Y9092380D01*
X57528571Y8949523D01*
X57480952Y8759047D01*
X57480952Y8378095D01*
X57528571Y8282857D01*
X57576190Y8235238D01*
X57671428Y8187619D01*
X57861904Y8187619D01*
X57957142Y8235238D01*
X58004761Y8282857D01*
X58052380Y8378095D01*
X58052380Y8616190D01*
X58004761Y8711428D01*
X57957142Y8759047D01*
X57861904Y8806666D01*
X57671428Y8806666D01*
X57576190Y8759047D01*
X57528571Y8711428D01*
X57480952Y8616190D01*
X58385714Y8187619D02*
X58909523Y8854285D01*
X58385714Y8854285D02*
X58909523Y8187619D01*
X59480952Y9187619D02*
X59576190Y9187619D01*
X59671428Y9140000D01*
X59719047Y9092380D01*
X59766666Y8997142D01*
X59814285Y8806666D01*
X59814285Y8568571D01*
X59766666Y8378095D01*
X59719047Y8282857D01*
X59671428Y8235238D01*
X59576190Y8187619D01*
X59480952Y8187619D01*
X59385714Y8235238D01*
X59338095Y8282857D01*
X59290476Y8378095D01*
X59242857Y8568571D01*
X59242857Y8806666D01*
X59290476Y8997142D01*
X59338095Y9092380D01*
X59385714Y9140000D01*
X59480952Y9187619D01*
%TO.C,SW6x1*%
X74585714Y8235238D02*
X74728571Y8187619D01*
X74966666Y8187619D01*
X75061904Y8235238D01*
X75109523Y8282857D01*
X75157142Y8378095D01*
X75157142Y8473333D01*
X75109523Y8568571D01*
X75061904Y8616190D01*
X74966666Y8663809D01*
X74776190Y8711428D01*
X74680952Y8759047D01*
X74633333Y8806666D01*
X74585714Y8901904D01*
X74585714Y8997142D01*
X74633333Y9092380D01*
X74680952Y9140000D01*
X74776190Y9187619D01*
X75014285Y9187619D01*
X75157142Y9140000D01*
X75490476Y9187619D02*
X75728571Y8187619D01*
X75919047Y8901904D01*
X76109523Y8187619D01*
X76347619Y9187619D01*
X77157142Y9187619D02*
X76966666Y9187619D01*
X76871428Y9140000D01*
X76823809Y9092380D01*
X76728571Y8949523D01*
X76680952Y8759047D01*
X76680952Y8378095D01*
X76728571Y8282857D01*
X76776190Y8235238D01*
X76871428Y8187619D01*
X77061904Y8187619D01*
X77157142Y8235238D01*
X77204761Y8282857D01*
X77252380Y8378095D01*
X77252380Y8616190D01*
X77204761Y8711428D01*
X77157142Y8759047D01*
X77061904Y8806666D01*
X76871428Y8806666D01*
X76776190Y8759047D01*
X76728571Y8711428D01*
X76680952Y8616190D01*
X77585714Y8187619D02*
X78109523Y8854285D01*
X77585714Y8854285D02*
X78109523Y8187619D01*
X79014285Y8187619D02*
X78442857Y8187619D01*
X78728571Y8187619D02*
X78728571Y9187619D01*
X78633333Y9044761D01*
X78538095Y8949523D01*
X78442857Y8901904D01*
%TO.C,SW6x2*%
X93785714Y8235238D02*
X93928571Y8187619D01*
X94166666Y8187619D01*
X94261904Y8235238D01*
X94309523Y8282857D01*
X94357142Y8378095D01*
X94357142Y8473333D01*
X94309523Y8568571D01*
X94261904Y8616190D01*
X94166666Y8663809D01*
X93976190Y8711428D01*
X93880952Y8759047D01*
X93833333Y8806666D01*
X93785714Y8901904D01*
X93785714Y8997142D01*
X93833333Y9092380D01*
X93880952Y9140000D01*
X93976190Y9187619D01*
X94214285Y9187619D01*
X94357142Y9140000D01*
X94690476Y9187619D02*
X94928571Y8187619D01*
X95119047Y8901904D01*
X95309523Y8187619D01*
X95547619Y9187619D01*
X96357142Y9187619D02*
X96166666Y9187619D01*
X96071428Y9140000D01*
X96023809Y9092380D01*
X95928571Y8949523D01*
X95880952Y8759047D01*
X95880952Y8378095D01*
X95928571Y8282857D01*
X95976190Y8235238D01*
X96071428Y8187619D01*
X96261904Y8187619D01*
X96357142Y8235238D01*
X96404761Y8282857D01*
X96452380Y8378095D01*
X96452380Y8616190D01*
X96404761Y8711428D01*
X96357142Y8759047D01*
X96261904Y8806666D01*
X96071428Y8806666D01*
X95976190Y8759047D01*
X95928571Y8711428D01*
X95880952Y8616190D01*
X96785714Y8187619D02*
X97309523Y8854285D01*
X96785714Y8854285D02*
X97309523Y8187619D01*
X97642857Y9092380D02*
X97690476Y9140000D01*
X97785714Y9187619D01*
X98023809Y9187619D01*
X98119047Y9140000D01*
X98166666Y9092380D01*
X98214285Y8997142D01*
X98214285Y8901904D01*
X98166666Y8759047D01*
X97595238Y8187619D01*
X98214285Y8187619D01*
%TO.C,SW6x4*%
X136985714Y8235238D02*
X137128571Y8187619D01*
X137366666Y8187619D01*
X137461904Y8235238D01*
X137509523Y8282857D01*
X137557142Y8378095D01*
X137557142Y8473333D01*
X137509523Y8568571D01*
X137461904Y8616190D01*
X137366666Y8663809D01*
X137176190Y8711428D01*
X137080952Y8759047D01*
X137033333Y8806666D01*
X136985714Y8901904D01*
X136985714Y8997142D01*
X137033333Y9092380D01*
X137080952Y9140000D01*
X137176190Y9187619D01*
X137414285Y9187619D01*
X137557142Y9140000D01*
X137890476Y9187619D02*
X138128571Y8187619D01*
X138319047Y8901904D01*
X138509523Y8187619D01*
X138747619Y9187619D01*
X139557142Y9187619D02*
X139366666Y9187619D01*
X139271428Y9140000D01*
X139223809Y9092380D01*
X139128571Y8949523D01*
X139080952Y8759047D01*
X139080952Y8378095D01*
X139128571Y8282857D01*
X139176190Y8235238D01*
X139271428Y8187619D01*
X139461904Y8187619D01*
X139557142Y8235238D01*
X139604761Y8282857D01*
X139652380Y8378095D01*
X139652380Y8616190D01*
X139604761Y8711428D01*
X139557142Y8759047D01*
X139461904Y8806666D01*
X139271428Y8806666D01*
X139176190Y8759047D01*
X139128571Y8711428D01*
X139080952Y8616190D01*
X139985714Y8187619D02*
X140509523Y8854285D01*
X139985714Y8854285D02*
X140509523Y8187619D01*
X141319047Y8854285D02*
X141319047Y8187619D01*
X141080952Y9235238D02*
X140842857Y8520952D01*
X141461904Y8520952D01*
%TO.C,SW6x6*%
X165785714Y8235238D02*
X165928571Y8187619D01*
X166166666Y8187619D01*
X166261904Y8235238D01*
X166309523Y8282857D01*
X166357142Y8378095D01*
X166357142Y8473333D01*
X166309523Y8568571D01*
X166261904Y8616190D01*
X166166666Y8663809D01*
X165976190Y8711428D01*
X165880952Y8759047D01*
X165833333Y8806666D01*
X165785714Y8901904D01*
X165785714Y8997142D01*
X165833333Y9092380D01*
X165880952Y9140000D01*
X165976190Y9187619D01*
X166214285Y9187619D01*
X166357142Y9140000D01*
X166690476Y9187619D02*
X166928571Y8187619D01*
X167119047Y8901904D01*
X167309523Y8187619D01*
X167547619Y9187619D01*
X168357142Y9187619D02*
X168166666Y9187619D01*
X168071428Y9140000D01*
X168023809Y9092380D01*
X167928571Y8949523D01*
X167880952Y8759047D01*
X167880952Y8378095D01*
X167928571Y8282857D01*
X167976190Y8235238D01*
X168071428Y8187619D01*
X168261904Y8187619D01*
X168357142Y8235238D01*
X168404761Y8282857D01*
X168452380Y8378095D01*
X168452380Y8616190D01*
X168404761Y8711428D01*
X168357142Y8759047D01*
X168261904Y8806666D01*
X168071428Y8806666D01*
X167976190Y8759047D01*
X167928571Y8711428D01*
X167880952Y8616190D01*
X168785714Y8187619D02*
X169309523Y8854285D01*
X168785714Y8854285D02*
X169309523Y8187619D01*
X170119047Y9187619D02*
X169928571Y9187619D01*
X169833333Y9140000D01*
X169785714Y9092380D01*
X169690476Y8949523D01*
X169642857Y8759047D01*
X169642857Y8378095D01*
X169690476Y8282857D01*
X169738095Y8235238D01*
X169833333Y8187619D01*
X170023809Y8187619D01*
X170119047Y8235238D01*
X170166666Y8282857D01*
X170214285Y8378095D01*
X170214285Y8616190D01*
X170166666Y8711428D01*
X170119047Y8759047D01*
X170023809Y8806666D01*
X169833333Y8806666D01*
X169738095Y8759047D01*
X169690476Y8711428D01*
X169642857Y8616190D01*
%TO.C,U1*%
X28038095Y75107619D02*
X28038095Y74298095D01*
X28085714Y74202857D01*
X28133333Y74155238D01*
X28228571Y74107619D01*
X28419047Y74107619D01*
X28514285Y74155238D01*
X28561904Y74202857D01*
X28609523Y74298095D01*
X28609523Y75107619D01*
X29609523Y74107619D02*
X29038095Y74107619D01*
X29323809Y74107619D02*
X29323809Y75107619D01*
X29228571Y74964761D01*
X29133333Y74869523D01*
X29038095Y74821904D01*
%TO.C,SW1*%
X12490666Y122859238D02*
X12633523Y122811619D01*
X12871619Y122811619D01*
X12966857Y122859238D01*
X13014476Y122906857D01*
X13062095Y123002095D01*
X13062095Y123097333D01*
X13014476Y123192571D01*
X12966857Y123240190D01*
X12871619Y123287809D01*
X12681142Y123335428D01*
X12585904Y123383047D01*
X12538285Y123430666D01*
X12490666Y123525904D01*
X12490666Y123621142D01*
X12538285Y123716380D01*
X12585904Y123764000D01*
X12681142Y123811619D01*
X12919238Y123811619D01*
X13062095Y123764000D01*
X13395428Y123811619D02*
X13633523Y122811619D01*
X13824000Y123525904D01*
X14014476Y122811619D01*
X14252571Y123811619D01*
X15157333Y122811619D02*
X14585904Y122811619D01*
X14871619Y122811619D02*
X14871619Y123811619D01*
X14776380Y123668761D01*
X14681142Y123573523D01*
X14585904Y123525904D01*
%TO.C,J1*%
X179662380Y119066666D02*
X180376666Y119066666D01*
X180519523Y119019047D01*
X180614761Y118923809D01*
X180662380Y118780952D01*
X180662380Y118685714D01*
X180662380Y120066666D02*
X180662380Y119495238D01*
X180662380Y119780952D02*
X179662380Y119780952D01*
X179805238Y119685714D01*
X179900476Y119590476D01*
X179948095Y119495238D01*
%TO.C,R1*%
X23611333Y57849619D02*
X23278000Y58325809D01*
X23039904Y57849619D02*
X23039904Y58849619D01*
X23420857Y58849619D01*
X23516095Y58802000D01*
X23563714Y58754380D01*
X23611333Y58659142D01*
X23611333Y58516285D01*
X23563714Y58421047D01*
X23516095Y58373428D01*
X23420857Y58325809D01*
X23039904Y58325809D01*
X24563714Y57849619D02*
X23992285Y57849619D01*
X24278000Y57849619D02*
X24278000Y58849619D01*
X24182761Y58706761D01*
X24087523Y58611523D01*
X23992285Y58563904D01*
%TO.C,R2*%
X33625333Y57915619D02*
X33292000Y58391809D01*
X33053904Y57915619D02*
X33053904Y58915619D01*
X33434857Y58915619D01*
X33530095Y58868000D01*
X33577714Y58820380D01*
X33625333Y58725142D01*
X33625333Y58582285D01*
X33577714Y58487047D01*
X33530095Y58439428D01*
X33434857Y58391809D01*
X33053904Y58391809D01*
X34006285Y58820380D02*
X34053904Y58868000D01*
X34149142Y58915619D01*
X34387238Y58915619D01*
X34482476Y58868000D01*
X34530095Y58820380D01*
X34577714Y58725142D01*
X34577714Y58629904D01*
X34530095Y58487047D01*
X33958666Y57915619D01*
X34577714Y57915619D01*
%TO.C,U2*%
X28038095Y62179619D02*
X28038095Y61370095D01*
X28085714Y61274857D01*
X28133333Y61227238D01*
X28228571Y61179619D01*
X28419047Y61179619D01*
X28514285Y61227238D01*
X28561904Y61274857D01*
X28609523Y61370095D01*
X28609523Y62179619D01*
X29038095Y62084380D02*
X29085714Y62132000D01*
X29180952Y62179619D01*
X29419047Y62179619D01*
X29514285Y62132000D01*
X29561904Y62084380D01*
X29609523Y61989142D01*
X29609523Y61893904D01*
X29561904Y61751047D01*
X28990476Y61179619D01*
X29609523Y61179619D01*
%TO.C,J2*%
X47862380Y118130666D02*
X48576666Y118130666D01*
X48719523Y118083047D01*
X48814761Y117987809D01*
X48862380Y117844952D01*
X48862380Y117749714D01*
X47957619Y118559238D02*
X47910000Y118606857D01*
X47862380Y118702095D01*
X47862380Y118940190D01*
X47910000Y119035428D01*
X47957619Y119083047D01*
X48052857Y119130666D01*
X48148095Y119130666D01*
X48290952Y119083047D01*
X48862380Y118511619D01*
X48862380Y119130666D01*
%TD*%
M02*
