M48
; DRILL file {KiCad 5.1.10-88a1d61d58~88~ubuntu20.04.1} date Wed May  5 16:29:43 2021
; FORMAT={-:-/ absolute / metric / decimal}
; #@! TF.CreationDate,2021-05-05T16:29:43+01:00
; #@! TF.GenerationSoftware,Kicad,Pcbnew,5.1.10-88a1d61d58~88~ubuntu20.04.1
FMAT,2
METRIC
T1C0.800
T2C1.000
T3C3.000
T4C4.000
%
G90
G05
T1
X1.44Y105.6
X1.44Y97.98
X1.44Y80.0
X1.44Y72.38
X1.44Y48.0
X1.44Y40.38
X7.84Y19.2
X7.84Y11.58
X7.84Y0.0
X7.84Y-7.62
X20.64Y115.2
X20.64Y107.58
X20.64Y96.0
X20.64Y88.38
X20.64Y76.8
X20.64Y69.18
X20.64Y57.6
X20.64Y49.98
X20.64Y38.4
X20.64Y30.78
X33.44Y19.2
X33.44Y11.58
X33.44Y0.0
X33.44Y-7.62
X39.84Y115.2
X39.84Y107.58
X39.84Y96.0
X39.84Y88.38
X39.84Y76.8
X39.84Y69.18
X39.84Y57.6
X39.84Y49.98
X39.84Y38.4
X39.84Y30.78
X59.04Y115.2
X59.04Y107.58
X59.04Y96.0
X59.04Y88.38
X59.04Y76.8
X59.04Y69.18
X59.04Y57.6
X59.04Y49.98
X59.04Y38.4
X59.04Y30.78
X59.69Y27.305
X59.69Y24.765
X59.69Y22.225
X59.69Y19.685
X59.69Y17.145
X59.69Y14.605
X59.69Y12.065
X59.69Y9.525
X59.69Y6.985
X59.69Y4.445
X59.69Y1.905
X59.69Y-0.635
X59.69Y-3.175
X59.69Y-5.715
X67.31Y27.305
X67.31Y24.765
X67.31Y22.225
X67.31Y19.685
X67.31Y17.145
X67.31Y14.605
X67.31Y12.065
X67.31Y9.525
X67.31Y6.985
X67.31Y4.445
X67.31Y1.905
X67.31Y-0.635
X67.31Y-3.175
X67.31Y-5.715
X78.24Y115.2
X78.24Y107.58
X78.24Y96.0
X78.24Y88.38
X78.24Y76.8
X78.24Y69.18
X78.24Y57.6
X78.24Y49.98
X78.24Y38.4
X78.24Y30.78
X78.24Y19.2
X78.24Y11.58
X78.24Y0.0
X78.24Y-7.62
X97.44Y115.2
X97.44Y107.58
X97.44Y96.0
X97.44Y88.38
X97.44Y76.8
X97.44Y69.18
X97.44Y57.6
X97.44Y49.98
X97.44Y38.4
X97.44Y30.78
X97.44Y19.2
X97.44Y11.58
X97.44Y0.0
X97.44Y-7.62
X116.64Y115.2
X116.64Y107.58
X116.64Y96.0
X116.64Y88.38
X116.64Y76.8
X116.64Y69.18
X116.64Y57.6
X116.64Y49.98
X116.64Y38.4
X116.64Y30.78
X116.64Y19.2
X116.64Y11.58
X116.64Y0.0
X116.64Y-7.62
X135.84Y115.2
X135.84Y107.58
X135.84Y96.0
X135.84Y88.38
X135.84Y76.8
X135.84Y69.18
X135.84Y57.6
X135.84Y49.98
X135.84Y38.4
X135.84Y30.78
X135.84Y19.2
X135.84Y11.58
X135.84Y0.0
X135.84Y-7.62
X155.04Y115.2
X155.04Y107.58
X155.04Y96.0
X155.04Y88.38
X155.04Y76.8
X155.04Y69.18
X155.04Y57.6
X155.04Y49.98
X155.04Y38.4
X155.04Y30.78
X155.04Y19.2
X155.04Y11.58
X155.04Y0.0
X155.04Y-7.62
T2
X1.905Y115.57
X6.096Y116.332
X8.636Y116.332
X9.525Y71.12
X9.525Y57.15
X11.176Y116.332
X13.716Y116.332
X16.336Y119.554
X17.145Y10.16
X17.791Y60.96
X17.951Y122.201
X24.13Y-4.852
X26.035Y18.45
X26.035Y14.348
X41.91Y9.525
X47.625Y105.41
X48.26Y86.36
X48.26Y47.625
X53.975Y24.765
X55.245Y19.685
X55.245Y14.348
X55.245Y-3.175
X55.88Y9.525
X55.949Y27.404
X67.31Y30.48
X71.12Y7.62
X73.025Y-5.715
X75.711Y-3.175
T3
X5.79Y108.14
X5.79Y82.54
X5.79Y50.54
X12.14Y110.68
X12.14Y85.08
X12.14Y53.08
X12.19Y21.74
X12.19Y2.54
X18.54Y24.28
X18.54Y5.08
X24.99Y117.74
X24.99Y98.54
X24.99Y79.34
X24.99Y60.14
X24.99Y40.94
X31.34Y120.28
X31.34Y101.08
X31.34Y81.88
X31.34Y62.68
X31.34Y43.48
X37.79Y21.74
X37.79Y2.54
X44.14Y24.28
X44.14Y5.08
X44.19Y117.74
X44.19Y98.54
X44.19Y79.34
X44.19Y60.14
X44.19Y40.94
X50.54Y120.28
X50.54Y101.08
X50.54Y81.88
X50.54Y62.68
X50.54Y43.48
X63.39Y117.74
X63.39Y98.54
X63.39Y79.34
X63.39Y60.14
X63.39Y40.94
X69.74Y120.28
X69.74Y101.08
X69.74Y81.88
X69.74Y62.68
X69.74Y43.48
X82.59Y117.74
X82.59Y98.54
X82.59Y79.34
X82.59Y60.14
X82.59Y40.94
X82.59Y21.74
X82.59Y2.54
X88.94Y120.28
X88.94Y101.08
X88.94Y81.88
X88.94Y62.68
X88.94Y43.48
X88.94Y24.28
X88.94Y5.08
X101.79Y117.74
X101.79Y98.54
X101.79Y79.34
X101.79Y60.14
X101.79Y40.94
X101.79Y21.74
X101.79Y2.54
X108.14Y120.28
X108.14Y101.08
X108.14Y81.88
X108.14Y62.68
X108.14Y43.48
X108.14Y24.28
X108.14Y5.08
X120.99Y117.74
X120.99Y98.54
X120.99Y79.34
X120.99Y60.14
X120.99Y40.94
X120.99Y21.74
X120.99Y2.54
X127.34Y120.28
X127.34Y101.08
X127.34Y81.88
X127.34Y62.68
X127.34Y43.48
X127.34Y24.28
X127.34Y5.08
X140.19Y117.74
X140.19Y98.54
X140.19Y79.34
X140.19Y60.14
X140.19Y40.94
X140.19Y21.74
X140.19Y2.54
X146.54Y120.28
X146.54Y101.08
X146.54Y81.88
X146.54Y62.68
X146.54Y43.48
X146.54Y24.28
X146.54Y5.08
X159.39Y117.74
X159.39Y98.54
X159.39Y79.34
X159.39Y60.14
X159.39Y40.94
X159.39Y21.74
X159.39Y2.54
X165.74Y120.28
X165.74Y101.08
X165.74Y81.88
X165.74Y62.68
X165.74Y43.48
X165.74Y24.28
X165.74Y5.08
T4
X9.6Y105.6
X9.6Y80.0
X9.6Y48.0
X16.0Y19.2
X16.0Y0.0
X28.8Y115.2
X28.8Y96.0
X28.8Y76.8
X28.8Y57.6
X28.8Y38.4
X41.6Y19.2
X41.6Y0.0
X48.0Y115.2
X48.0Y96.0
X48.0Y76.8
X48.0Y57.6
X48.0Y38.4
X67.2Y115.2
X67.2Y96.0
X67.2Y76.8
X67.2Y57.6
X67.2Y38.4
X86.4Y115.2
X86.4Y96.0
X86.4Y76.8
X86.4Y57.6
X86.4Y38.4
X86.4Y19.2
X86.4Y0.0
X105.6Y115.2
X105.6Y96.0
X105.6Y76.8
X105.6Y57.6
X105.6Y38.4
X105.6Y19.2
X105.6Y0.0
X124.8Y115.2
X124.8Y96.0
X124.8Y76.8
X124.8Y57.6
X124.8Y38.4
X124.8Y19.2
X124.8Y0.0
X144.0Y115.2
X144.0Y96.0
X144.0Y76.8
X144.0Y57.6
X144.0Y38.4
X144.0Y19.2
X144.0Y0.0
X163.2Y115.2
X163.2Y96.0
X163.2Y76.8
X163.2Y57.6
X163.2Y38.4
X163.2Y19.2
X163.2Y0.0
T0
M30
